#define autumn.svg_width 88
#define autumn.svg_height 24
static char autumn.svg_bits[] = {
  0x04, 0xF8, 0x00, 0x00, 0x00, 0xC3, 0x00, 0x00, 0x00, 0x1E, 0x20, 0x1C, 
  0xE0, 0x01, 0x00, 0x00, 0xC3, 0x00, 0x00, 0xC0, 0x07, 0x38, 0x7C, 0x80, 
  0x0F, 0x00, 0x00, 0xC3, 0x00, 0x00, 0xE0, 0x01, 0x3E, 0xFC, 0x01, 0x3E, 
  0x00, 0x00, 0xC3, 0x00, 0x00, 0x7C, 0x80, 0x3F, 0x8C, 0x07, 0xF8, 0x00, 
  0x00, 0xC3, 0x00, 0x00, 0x1F, 0xE0, 0x33, 0x0C, 0x1F, 0xE0, 0x03, 0x00, 
  0xC3, 0x00, 0x80, 0x07, 0xF8, 0x30, 0x0C, 0x78, 0x80, 0x0F, 0x00, 0xC3, 
  0x00, 0xF0, 0x01, 0x3E, 0x30, 0x0C, 0xF0, 0x01, 0x3E, 0x00, 0xC3, 0x00, 
  0x78, 0x80, 0x0F, 0x30, 0x0C, 0x80, 0x07, 0xF8, 0x00, 0xC3, 0x00, 0x1E, 
  0xE0, 0x03, 0x30, 0x0C, 0x00, 0x1F, 0xE0, 0x03, 0xC3, 0xC0, 0x07, 0xF8, 
  0x00, 0x30, 0x0C, 0x00, 0x78, 0x80, 0x0F, 0xC3, 0xE0, 0x01, 0x3E, 0x00, 
  0x30, 0x0C, 0x00, 0xF0, 0x01, 0x3E, 0xC3, 0x7C, 0x80, 0x0F, 0x00, 0x30, 
  0x0C, 0x00, 0xC0, 0x07, 0xF8, 0xC3, 0x1E, 0xE0, 0x03, 0x00, 0x30, 0x0C, 
  0x00, 0x00, 0x1F, 0xE0, 0xC3, 0x07, 0xF8, 0x00, 0x00, 0x30, 0x0C, 0x00, 
  0x00, 0x7C, 0x80, 0xC3, 0x01, 0x1E, 0x00, 0x00, 0x30, 0x0C, 0x00, 0x00, 
  0xF0, 0x01, 0x42, 0x80, 0x0F, 0x00, 0x00, 0x30, 0x1C, 0x00, 0x00, 0x80, 
  0x07, 0x00, 0xE0, 0x03, 0x00, 0x00, 0x30, 0x18, 0x00, 0x00, 0x00, 0x1F, 
  0x00, 0x78, 0x00, 0x00, 0x00, 0x18, 0x38, 0x00, 0x00, 0x00, 0x78, 0x00, 
  0x3C, 0x00, 0x00, 0x00, 0x1C, 0x30, 0x00, 0x00, 0x00, 0x70, 0x00, 0x0E, 
  0x00, 0x00, 0x00, 0x0E, 0xE0, 0x00, 0x00, 0x00, 0xC0, 0x00, 0x07, 0x00, 
  0x00, 0x00, 0x07, 0xE0, 0x03, 0x00, 0x00, 0xC0, 0x81, 0x03, 0x00, 0x00, 
  0xC0, 0x03, 0x80, 0x07, 0x00, 0x00, 0x80, 0x81, 0x01, 0x00, 0x00, 0xF0, 
  0x01, 0x00, 0x3E, 0x00, 0x00, 0x80, 0xC3, 0x00, 0x00, 0x00, 0x78, 0x00, 
  };
