#define bamboo.svg_width 16
#define bamboo.svg_height 32
static char bamboo.svg_bits[] = {
  0xCF, 0xFC, 0xCF, 0xFC, 0x00, 0x00, 0x00, 0x00, 0xF3, 0xF3, 0xF3, 0xF3, 
  0x00, 0x00, 0x00, 0x00, 0xFC, 0xCF, 0xFC, 0xCF, 0x00, 0x00, 0x00, 0x00, 
  0xFF, 0x3F, 0xFF, 0x3F, 0x00, 0x00, 0x00, 0x00, 0xFC, 0xCF, 0xFC, 0xCF, 
  0x00, 0x00, 0x00, 0x00, 0xF3, 0xF3, 0xF3, 0xF3, 0x00, 0x00, 0x00, 0x00, 
  0xCF, 0xFC, 0xCF, 0xFC, 0x00, 0x00, 0x00, 0x00, 0x3F, 0xFF, 0x3F, 0xFF, 
  0x00, 0x00, 0x00, 0x00, };
