#define boxes.svg_width 20
#define boxes.svg_height 20
static char boxes.svg_bits[] = {
  0xFF, 0xFF, 0x0F, 0xFF, 0xFF, 0x03, 0xFF, 0xFF, 0x03, 0xFF, 0xFF, 0x00, 
  0xFF, 0x7F, 0x00, 0xFF, 0x7F, 0x00, 0xFF, 0x1F, 0x00, 0xFF, 0x1F, 0x00, 
  0xFF, 0x0F, 0x00, 0xFF, 0x03, 0x00, 0xFF, 0x03, 0x00, 0xFF, 0x00, 0x00, 
  0xFF, 0x00, 0x00, 0x3F, 0x00, 0x00, 0x3F, 0x00, 0x00, 0x0F, 0x00, 0x00, 
  0x0F, 0x00, 0x00, 0x03, 0x00, 0x00, 0x03, 0x00, 0x00, 0x00, 0x00, 0x00, 
  };
