#define charlie-brown.svg_width 20
#define charlie-brown.svg_height 12
static char charlie-brown.svg_bits[] = {
  0xC0, 0x30, 0x00, 0x81, 0x19, 0x08, 0x03, 0x0F, 0x0C, 0x06, 0x06, 0x06, 
  0x0C, 0x00, 0x03, 0x19, 0x80, 0x09, 0x33, 0xC0, 0x0C, 0x66, 0x60, 0x06, 
  0xCC, 0x30, 0x03, 0x98, 0x99, 0x01, 0x30, 0xCF, 0x00, 0x60, 0x66, 0x00, 
  };
