#define cork-screw.svg_width 20
#define cork-screw.svg_height 16
static char cork-screw.svg_bits[] = {
  0x03, 0xF8, 0x0F, 0x1F, 0xFE, 0x0F, 0xFC, 0xFF, 0x00, 0xE0, 0x1F, 0x00, 
  0xE0, 0x0F, 0x00, 0xF0, 0x03, 0x00, 0xF8, 0x03, 0x00, 0xFD, 0x01, 0x0E, 
  0xFF, 0x80, 0x0F, 0xFF, 0xC0, 0x0F, 0xFF, 0xE0, 0x0C, 0x7F, 0x60, 0x08, 
  0xFF, 0x3F, 0x00, 0xFF, 0x3F, 0x00, 0x00, 0x00, 0x00, 0x00, 0x00, 0x00, 
  };
