#define dominos.svg_width 126
#define dominos.svg_height 84
static char dominos.svg_bits[] = {
  0x00, 0x00, 0x00, 0x00, 0x00, 0x03, 0x00, 0x00, 0x00, 0x00, 0x0C, 0x00, 
  0x00, 0x00, 0x00, 0x30, 0x00, 0x00, 0x00, 0x00, 0x00, 0x03, 0x00, 0x00, 
  0x00, 0x00, 0x0C, 0x00, 0x00, 0x00, 0x00, 0x30, 0x00, 0x00, 0x00, 0x00, 
  0x00, 0x03, 0x00, 0x00, 0x00, 0x00, 0x0C, 0x00, 0x00, 0x00, 0x00, 0x30, 
  0x00, 0x00, 0x00, 0x00, 0x00, 0x03, 0x00, 0x00, 0x00, 0x00, 0x0C, 0x00, 
  0x00, 0x00, 0x00, 0x30, 0xC0, 0x03, 0x00, 0x00, 0x00, 0x03, 0x00, 0x00, 
  0x00, 0x00, 0x0C, 0x3C, 0x00, 0x00, 0x00, 0x30, 0xE0, 0x07, 0x00, 0x00, 
  0x00, 0x03, 0x00, 0x00, 0x00, 0x00, 0x0C, 0x7E, 0x00, 0x00, 0x00, 0x30, 
  0xF0, 0x0F, 0x00, 0x00, 0x00, 0x03, 0x00, 0x00, 0x00, 0x00, 0x0C, 0xFF, 
  0x00, 0x00, 0x00, 0x30, 0xF0, 0x0F, 0x00, 0x00, 0x00, 0x03, 0x00, 0x00, 
  0x00, 0x00, 0x0C, 0xFF, 0x00, 0x00, 0x00, 0x30, 0xF0, 0x0F, 0x00, 0x00, 
  0x00, 0x03, 0x00, 0x00, 0x00, 0x00, 0x0C, 0xFF, 0x00, 0x00, 0x00, 0x30, 
  0xF0, 0x0F, 0x00, 0x00, 0x00, 0x03, 0x00, 0x00, 0x00, 0x00, 0x0C, 0xFF, 
  0x00, 0x00, 0x00, 0x30, 0xE0, 0x07, 0x00, 0x00, 0x00, 0x03, 0x00, 0x00, 
  0x00, 0x00, 0x0C, 0x7E, 0x00, 0x00, 0x00, 0x30, 0xC0, 0x03, 0x00, 0x00, 
  0x00, 0x03, 0x00, 0x00, 0x00, 0x00, 0x0C, 0x3C, 0x00, 0x00, 0x00, 0x30, 
  0x00, 0x00, 0x00, 0x00, 0x00, 0x03, 0x00, 0x00, 0x00, 0x00, 0x0C, 0x00, 
  0x00, 0x00, 0x00, 0x30, 0x00, 0x00, 0x00, 0x00, 0x00, 0x03, 0x00, 0x00, 
  0x00, 0x00, 0x0C, 0x00, 0x00, 0x00, 0x00, 0x30, 0x00, 0x00, 0x00, 0x00, 
  0x00, 0x03, 0x00, 0x00, 0x00, 0x00, 0x0C, 0x00, 0x00, 0x00, 0x00, 0x30, 
  0x00, 0x00, 0x00, 0x00, 0x00, 0x03, 0x00, 0x00, 0x00, 0x00, 0x0C, 0x00, 
  0x00, 0x00, 0x00, 0x30, 0x00, 0x00, 0x00, 0x00, 0x00, 0x03, 0x00, 0xF0, 
  0x00, 0x00, 0x0C, 0x00, 0xC0, 0x03, 0x00, 0x30, 0x00, 0x00, 0x00, 0x00, 
  0x00, 0x03, 0x00, 0xF8, 0x01, 0x00, 0x0C, 0x00, 0xE0, 0x07, 0x00, 0x30, 
  0x00, 0x00, 0x00, 0x00, 0x00, 0x03, 0x00, 0xFC, 0x03, 0x00, 0x0C, 0x00, 
  0xF0, 0x0F, 0x00, 0x30, 0x00, 0x00, 0x00, 0x00, 0x00, 0x03, 0x00, 0xFC, 
  0x03, 0x00, 0x0C, 0x00, 0xF0, 0x0F, 0x00, 0x30, 0x00, 0x00, 0x00, 0x00, 
  0x00, 0x03, 0x00, 0xFC, 0x03, 0x00, 0x0C, 0x00, 0xF0, 0x0F, 0x00, 0x30, 
  0x00, 0x00, 0x00, 0x00, 0x00, 0x03, 0x00, 0xFC, 0x03, 0x00, 0x0C, 0x00, 
  0xF0, 0x0F, 0x00, 0x30, 0x00, 0x00, 0x00, 0x00, 0x00, 0x03, 0x00, 0xF8, 
  0x01, 0x00, 0x0C, 0x00, 0xE0, 0x07, 0x00, 0x30, 0x00, 0x00, 0x00, 0x00, 
  0x00, 0x03, 0x00, 0xF0, 0x00, 0x00, 0x0C, 0x00, 0xC0, 0x03, 0x00, 0x30, 
  0x00, 0x00, 0x00, 0x00, 0x00, 0x03, 0x00, 0x00, 0x00, 0x00, 0x0C, 0x00, 
  0x00, 0x00, 0x00, 0x30, 0x00, 0x00, 0x00, 0x00, 0x00, 0x03, 0x00, 0x00, 
  0x00, 0x00, 0x0C, 0x00, 0x00, 0x00, 0x00, 0x30, 0x00, 0x00, 0x00, 0x00, 
  0x00, 0x03, 0x00, 0x00, 0x00, 0x00, 0x0C, 0x00, 0x00, 0x00, 0x00, 0x30, 
  0x00, 0x00, 0x00, 0x00, 0x00, 0x03, 0x00, 0x00, 0x00, 0x00, 0x0C, 0x00, 
  0x00, 0x00, 0x00, 0x30, 0x00, 0x00, 0x00, 0xC0, 0x03, 0x03, 0x00, 0x00, 
  0x00, 0x00, 0x0C, 0x00, 0x00, 0x00, 0x3C, 0x30, 0x00, 0x00, 0x00, 0xE0, 
  0x07, 0x03, 0x00, 0x00, 0x00, 0x00, 0x0C, 0x00, 0x00, 0x00, 0x7E, 0x30, 
  0x00, 0x00, 0x00, 0xF0, 0x0F, 0x03, 0x00, 0x00, 0x00, 0x00, 0x0C, 0x00, 
  0x00, 0x00, 0xFF, 0x30, 0x00, 0x00, 0x00, 0xF0, 0x0F, 0x03, 0x00, 0x00, 
  0x00, 0x00, 0x0C, 0x00, 0x00, 0x00, 0xFF, 0x30, 0x00, 0x00, 0x00, 0xF0, 
  0x0F, 0x03, 0x00, 0x00, 0x00, 0x00, 0x0C, 0x00, 0x00, 0x00, 0xFF, 0x30, 
  0x00, 0x00, 0x00, 0xF0, 0x0F, 0x03, 0x00, 0x00, 0x00, 0x00, 0x0C, 0x00, 
  0x00, 0x00, 0xFF, 0x30, 0x00, 0x00, 0x00, 0xE0, 0x07, 0x03, 0x00, 0x00, 
  0x00, 0x00, 0x0C, 0x00, 0x00, 0x00, 0x7E, 0x30, 0x00, 0x00, 0x00, 0xC0, 
  0x03, 0x03, 0x00, 0x00, 0x00, 0x00, 0x0C, 0x00, 0x00, 0x00, 0x3C, 0x30, 
  0x00, 0x00, 0x00, 0x00, 0x00, 0x03, 0x00, 0x00, 0x00, 0x00, 0x0C, 0x00, 
  0x00, 0x00, 0x00, 0x30, 0x00, 0x00, 0x00, 0x00, 0x00, 0x03, 0x00, 0x00, 
  0x00, 0x00, 0x0C, 0x00, 0x00, 0x00, 0x00, 0x30, 0x00, 0x00, 0x00, 0x00, 
  0x00, 0x03, 0x00, 0x00, 0x00, 0x00, 0x0C, 0x00, 0x00, 0x00, 0x00, 0x30, 
  0x00, 0x00, 0x00, 0x00, 0x00, 0x03, 0x00, 0x00, 0x00, 0x00, 0x0C, 0x00, 
  0x00, 0x00, 0x00, 0x30, 0xFF, 0xFF, 0xFF, 0xFF, 0xFF, 0xFF, 0xFF, 0xFF, 
  0xFF, 0xFF, 0xFF, 0xFF, 0xFF, 0xFF, 0xFF, 0x3F, 0xFF, 0xFF, 0xFF, 0xFF, 
  0xFF, 0xFF, 0xFF, 0xFF, 0xFF, 0xFF, 0xFF, 0xFF, 0xFF, 0xFF, 0xFF, 0x3F, 
  0x00, 0x00, 0x00, 0x00, 0x00, 0x03, 0x00, 0x00, 0x00, 0x00, 0x0C, 0x00, 
  0x00, 0x00, 0x00, 0x30, 0x00, 0x00, 0x00, 0x00, 0x00, 0x03, 0x00, 0x00, 
  0x00, 0x00, 0x0C, 0x00, 0x00, 0x00, 0x00, 0x30, 0x00, 0x00, 0x00, 0x00, 
  0x00, 0x03, 0x00, 0x00, 0x00, 0x00, 0x0C, 0x00, 0x00, 0x00, 0x00, 0x30, 
  0x00, 0x00, 0x00, 0x00, 0x00, 0x03, 0x00, 0x00, 0x00, 0x00, 0x0C, 0x00, 
  0x00, 0x00, 0x00, 0x30, 0xC0, 0x03, 0x3C, 0xC0, 0x03, 0x03, 0x0F, 0x00, 
  0x00, 0x0F, 0x0C, 0x3C, 0x00, 0x00, 0x3C, 0x30, 0xE0, 0x07, 0x7E, 0xE0, 
  0x07, 0x83, 0x1F, 0x00, 0x80, 0x1F, 0x0C, 0x7E, 0x00, 0x00, 0x7E, 0x30, 
  0xF0, 0x0F, 0xFF, 0xF0, 0x0F, 0xC3, 0x3F, 0x00, 0xC0, 0x3F, 0x0C, 0xFF, 
  0x00, 0x00, 0xFF, 0x30, 0xF0, 0x0F, 0xFF, 0xF0, 0x0F, 0xC3, 0x3F, 0x00, 
  0xC0, 0x3F, 0x0C, 0xFF, 0x00, 0x00, 0xFF, 0x30, 0xF0, 0x0F, 0xFF, 0xF0, 
  0x0F, 0xC3, 0x3F, 0x00, 0xC0, 0x3F, 0x0C, 0xFF, 0x00, 0x00, 0xFF, 0x30, 
  0xF0, 0x0F, 0xFF, 0xF0, 0x0F, 0xC3, 0x3F, 0x00, 0xC0, 0x3F, 0x0C, 0xFF, 
  0x00, 0x00, 0xFF, 0x30, 0xE0, 0x07, 0x7E, 0xE0, 0x07, 0x83, 0x1F, 0x00, 
  0x80, 0x1F, 0x0C, 0x7E, 0x00, 0x00, 0x7E, 0x30, 0xC0, 0x03, 0x3C, 0xC0, 
  0x03, 0x03, 0x0F, 0x00, 0x00, 0x0F, 0x0C, 0x3C, 0x00, 0x00, 0x3C, 0x30, 
  0x00, 0x00, 0x00, 0x00, 0x00, 0x03, 0x00, 0x00, 0x00, 0x00, 0x0C, 0x00, 
  0x00, 0x00, 0x00, 0x30, 0x00, 0x00, 0x00, 0x00, 0x00, 0x03, 0x00, 0x00, 
  0x00, 0x00, 0x0C, 0x00, 0x00, 0x00, 0x00, 0x30, 0x00, 0x00, 0x00, 0x00, 
  0x00, 0x03, 0x00, 0x00, 0x00, 0x00, 0x0C, 0x00, 0x00, 0x00, 0x00, 0x30, 
  0x00, 0x00, 0x00, 0x00, 0x00, 0x03, 0x00, 0x00, 0x00, 0x00, 0x0C, 0x00, 
  0x00, 0x00, 0x00, 0x30, 0x00, 0x00, 0x00, 0x00, 0x00, 0x03, 0x00, 0x00, 
  0x00, 0x00, 0x0C, 0x00, 0x80, 0x03, 0x00, 0x30, 0x00, 0x00, 0x00, 0x00, 
  0x00, 0x03, 0x00, 0x00, 0x00, 0x00, 0x0C, 0x00, 0xE0, 0x07, 0x00, 0x30, 
  0x00, 0x00, 0x00, 0x00, 0x00, 0x03, 0x00, 0x00, 0x00, 0x00, 0x0C, 0x00, 
  0xF0, 0x0F, 0x00, 0x30, 0x00, 0x00, 0x00, 0x00, 0x00, 0x03, 0x00, 0x00, 
  0x00, 0x00, 0x0C, 0x00, 0xF0, 0x0F, 0x00, 0x30, 0x00, 0x00, 0x00, 0x00, 
  0x00, 0x03, 0x00, 0x00, 0x00, 0x00, 0x0C, 0x00, 0xF0, 0x0F, 0x00, 0x30, 
  0x00, 0x00, 0x00, 0x00, 0x00, 0x03, 0x00, 0x00, 0x00, 0x00, 0x0C, 0x00, 
  0xF0, 0x0F, 0x00, 0x30, 0x00, 0x00, 0x00, 0x00, 0x00, 0x03, 0x00, 0x00, 
  0x00, 0x00, 0x0C, 0x00, 0xE0, 0x07, 0x00, 0x30, 0x00, 0x00, 0x00, 0x00, 
  0x00, 0x03, 0x00, 0x00, 0x00, 0x00, 0x0C, 0x00, 0xC0, 0x03, 0x00, 0x30, 
  0x00, 0x00, 0x00, 0x00, 0x00, 0x03, 0x00, 0x00, 0x00, 0x00, 0x0C, 0x00, 
  0x00, 0x00, 0x00, 0x30, 0x00, 0x00, 0x00, 0x00, 0x00, 0x03, 0x00, 0x00, 
  0x00, 0x00, 0x0C, 0x00, 0x00, 0x00, 0x00, 0x30, 0x00, 0x00, 0x00, 0x00, 
  0x00, 0x03, 0x00, 0x00, 0x00, 0x00, 0x0C, 0x00, 0x00, 0x00, 0x00, 0x30, 
  0x00, 0x00, 0x00, 0x00, 0x00, 0x03, 0x00, 0x00, 0x00, 0x00, 0x0C, 0x00, 
  0x00, 0x00, 0x00, 0x30, 0xC0, 0x03, 0x3C, 0xC0, 0x03, 0x03, 0x0F, 0x00, 
  0x00, 0x0F, 0x0C, 0x3C, 0x00, 0x00, 0x3C, 0x30, 0xE0, 0x07, 0x7E, 0xE0, 
  0x07, 0x83, 0x1F, 0x00, 0x80, 0x1F, 0x0C, 0x7E, 0x00, 0x00, 0x7E, 0x30, 
  0xF0, 0x0F, 0xFF, 0xF0, 0x0F, 0xC3, 0x3F, 0x00, 0xC0, 0x3F, 0x0C, 0xFF, 
  0x00, 0x00, 0xFF, 0x30, 0xF0, 0x0F, 0xFF, 0xF0, 0x0F, 0xC3, 0x3F, 0x00, 
  0xC0, 0x3F, 0x0C, 0xFF, 0x00, 0x00, 0xFF, 0x30, 0xF0, 0x0F, 0xFF, 0xF0, 
  0x0F, 0xC3, 0x3F, 0x00, 0xC0, 0x3F, 0x0C, 0xFF, 0x00, 0x00, 0xFF, 0x30, 
  0xF0, 0x07, 0xFF, 0xF0, 0x0F, 0xC3, 0x3F, 0x00, 0xC0, 0x3F, 0x0C, 0xFF, 
  0x00, 0x00, 0xFF, 0x30, 0xE0, 0x07, 0x7E, 0xE0, 0x07, 0x83, 0x1F, 0x00, 
  0x80, 0x1F, 0x0C, 0x7E, 0x00, 0x00, 0x7E, 0x30, 0xC0, 0x03, 0x3C, 0xC0, 
  0x03, 0x03, 0x0F, 0x00, 0x00, 0x0F, 0x0C, 0x3C, 0x00, 0x00, 0x3C, 0x30, 
  0x00, 0x00, 0x00, 0x00, 0x00, 0x03, 0x00, 0x00, 0x00, 0x00, 0x0C, 0x00, 
  0x00, 0x00, 0x00, 0x30, 0x00, 0x00, 0x00, 0x00, 0x00, 0x03, 0x00, 0x00, 
  0x00, 0x00, 0x0C, 0x00, 0x00, 0x00, 0x00, 0x30, 0x00, 0x00, 0x00, 0x00, 
  0x00, 0x03, 0x00, 0x00, 0x00, 0x00, 0x0C, 0x00, 0x00, 0x00, 0x00, 0x30, 
  0x00, 0x00, 0x00, 0x00, 0x00, 0x03, 0x00, 0x00, 0x00, 0x00, 0x0C, 0x00, 
  0x00, 0x00, 0x00, 0x30, 0xFF, 0xFF, 0xFF, 0xFF, 0xFF, 0xFF, 0xFF, 0xFF, 
  0xFF, 0xFF, 0xFF, 0xFF, 0xFF, 0xFF, 0xFF, 0x3F, 0xFF, 0xFF, 0xFF, 0xFF, 
  0xFF, 0xFF, 0xFF, 0xFF, 0xFF, 0xFF, 0xFF, 0xFF, 0xFF, 0xFF, 0xFF, 0x3F, 
  };
