#define eyes.svg_width 20
#define eyes.svg_height 12
static char eyes.svg_bits[] = {
  0x33, 0xCF, 0x0C, 0xF1, 0xFF, 0x08, 0xF8, 0xF0, 0x01, 0x7C, 0xE0, 0x03, 
  0x3F, 0xC6, 0x0F, 0x33, 0xCF, 0x0C, 0x33, 0xCF, 0x0C, 0x3F, 0xC6, 0x0F, 
  0x7C, 0xE0, 0x03, 0xF8, 0xF0, 0x01, 0xF1, 0xFF, 0x08, 0x33, 0xCF, 0x0C, 
  };
