#define flipped-diamonds.svg_width 16
#define flipped-diamonds.svg_height 20
static char flipped-diamonds.svg_bits[] = {
  0x00, 0xFF, 0x80, 0xFE, 0xC0, 0xFC, 0xE0, 0xF8, 0xF0, 0xF0, 0xF0, 0xF0, 
  0xF8, 0xE0, 0xFC, 0xC0, 0xFE, 0x80, 0xFF, 0x00, 0xFE, 0x80, 0xFE, 0x80, 
  0xFC, 0xC0, 0xF8, 0xE0, 0xF0, 0xF0, 0xF0, 0xF0, 0xE0, 0xF8, 0xC0, 0xFC, 
  0x80, 0xFE, 0x00, 0xFF, };
