#define graph-paper.svg_width 100
#define graph-paper.svg_height 100
static char graph-paper.svg_bits[] = {
  0x60, 0x80, 0x00, 0x02, 0x08, 0x20, 0x80, 0x00, 0x02, 0x08, 0x20, 0x80, 
  0x00, 0x30, 0x80, 0x00, 0x02, 0x08, 0x20, 0x80, 0x00, 0x02, 0x08, 0x20, 
  0x80, 0x00, 0x20, 0x80, 0x00, 0x02, 0x08, 0x20, 0x80, 0x00, 0x02, 0x08, 
  0x20, 0x80, 0x00, 0x20, 0x80, 0x00, 0x02, 0x08, 0x20, 0x80, 0x00, 0x02, 
  0x08, 0x20, 0x80, 0x00, 0x64, 0xA2, 0x29, 0x46, 0x2A, 0x39, 0xC4, 0x22, 
  0x2B, 0x4C, 0x62, 0xA9, 0x04, 0xFF, 0xFF, 0xFF, 0xFF, 0xFF, 0xFF, 0xFF, 
  0xFF, 0xFF, 0xFF, 0xFF, 0xFF, 0x0F, 0x71, 0xC1, 0x10, 0x13, 0x49, 0x20, 
  0x91, 0x41, 0x12, 0x19, 0x61, 0x80, 0x01, 0x20, 0x80, 0x00, 0x02, 0x08, 
  0x20, 0x80, 0x00, 0x02, 0x08, 0x20, 0x80, 0x00, 0x30, 0x80, 0x00, 0x02, 
  0x08, 0x20, 0x80, 0x00, 0x02, 0x08, 0x20, 0x80, 0x00, 0x20, 0x80, 0x00, 
  0x02, 0x08, 0x20, 0x80, 0x00, 0x02, 0x08, 0x20, 0x80, 0x00, 0x20, 0x80, 
  0x00, 0x02, 0x08, 0x20, 0x80, 0x00, 0x02, 0x08, 0x20, 0x80, 0x00, 0x30, 
  0x80, 0x00, 0x02, 0x08, 0x20, 0x80, 0x00, 0x02, 0x08, 0x20, 0x80, 0x00, 
  0x20, 0x80, 0x00, 0x02, 0x08, 0x20, 0x80, 0x00, 0x02, 0x08, 0x20, 0x80, 
  0x00, 0x30, 0x80, 0x00, 0x02, 0x08, 0x20, 0x80, 0x00, 0x02, 0x08, 0x20, 
  0x80, 0x00, 0x20, 0x80, 0x00, 0x02, 0x08, 0x20, 0x80, 0x00, 0x02, 0x08, 
  0x20, 0x80, 0x00, 0xFF, 0xFF, 0xFF, 0xFF, 0xFF, 0xFF, 0xFF, 0xFF, 0xFF, 
  0xFF, 0xFF, 0xFF, 0x0F, 0x60, 0x80, 0x00, 0x02, 0x08, 0x20, 0x80, 0x00, 
  0x02, 0x08, 0x20, 0x80, 0x00, 0x20, 0x80, 0x00, 0x02, 0x08, 0x20, 0x80, 
  0x00, 0x02, 0x08, 0x20, 0x80, 0x00, 0x30, 0x80, 0x00, 0x02, 0x08, 0x20, 
  0x80, 0x00, 0x02, 0x08, 0x20, 0x80, 0x00, 0x20, 0x80, 0x00, 0x02, 0x08, 
  0x20, 0x80, 0x00, 0x02, 0x08, 0x20, 0x80, 0x00, 0x60, 0x80, 0x00, 0x02, 
  0x08, 0x20, 0x80, 0x00, 0x02, 0x08, 0x20, 0x80, 0x00, 0x20, 0x80, 0x00, 
  0x02, 0x08, 0x20, 0x80, 0x00, 0x02, 0x08, 0x20, 0x80, 0x00, 0x30, 0x80, 
  0x00, 0x02, 0x08, 0x20, 0x80, 0x00, 0x02, 0x08, 0x20, 0x80, 0x00, 0x20, 
  0x80, 0x00, 0x02, 0x08, 0x20, 0x80, 0x00, 0x02, 0x08, 0x20, 0x80, 0x00, 
  0x30, 0x80, 0x00, 0x02, 0x08, 0x20, 0x80, 0x00, 0x02, 0x08, 0x20, 0x80, 
  0x00, 0xFF, 0xFF, 0xFF, 0xFF, 0xFF, 0xFF, 0xFF, 0xFF, 0xFF, 0xFF, 0xFF, 
  0xFF, 0x0F, 0x20, 0x80, 0x00, 0x02, 0x08, 0x20, 0x80, 0x00, 0x02, 0x08, 
  0x20, 0x80, 0x00, 0x20, 0x80, 0x00, 0x02, 0x08, 0x20, 0x80, 0x00, 0x02, 
  0x08, 0x20, 0x80, 0x00, 0x20, 0x80, 0x00, 0x02, 0x08, 0x20, 0x80, 0x00, 
  0x02, 0x08, 0x20, 0x80, 0x00, 0x30, 0x80, 0x00, 0x02, 0x08, 0x20, 0x80, 
  0x00, 0x02, 0x08, 0x20, 0x80, 0x00, 0x60, 0x80, 0x00, 0x02, 0x08, 0x20, 
  0x80, 0x00, 0x02, 0x08, 0x20, 0x80, 0x00, 0x20, 0x80, 0x00, 0x02, 0x08, 
  0x20, 0x80, 0x00, 0x02, 0x08, 0x20, 0x80, 0x00, 0x30, 0x80, 0x00, 0x02, 
  0x08, 0x20, 0x80, 0x00, 0x02, 0x08, 0x20, 0x80, 0x00, 0x20, 0x80, 0x00, 
  0x02, 0x08, 0x20, 0x80, 0x00, 0x02, 0x08, 0x20, 0x80, 0x00, 0x20, 0x80, 
  0x00, 0x02, 0x08, 0x20, 0x80, 0x00, 0x02, 0x08, 0x20, 0x80, 0x00, 0xFF, 
  0xFF, 0xFF, 0xFF, 0xFF, 0xFF, 0xFF, 0xFF, 0xFF, 0xFF, 0xFF, 0xFF, 0x0F, 
  0x60, 0x80, 0x00, 0x02, 0x08, 0x20, 0x80, 0x00, 0x02, 0x08, 0x20, 0x80, 
  0x00, 0x30, 0x80, 0x00, 0x02, 0x08, 0x20, 0x80, 0x00, 0x02, 0x08, 0x20, 
  0x80, 0x00, 0x20, 0x80, 0x00, 0x02, 0x08, 0x20, 0x80, 0x00, 0x02, 0x08, 
  0x20, 0x80, 0x00, 0x20, 0x80, 0x00, 0x02, 0x08, 0x20, 0x80, 0x00, 0x02, 
  0x08, 0x20, 0x80, 0x00, 0x60, 0x80, 0x00, 0x02, 0x08, 0x20, 0x80, 0x00, 
  0x02, 0x08, 0x20, 0x80, 0x00, 0x20, 0x80, 0x00, 0x02, 0x08, 0x20, 0x80, 
  0x00, 0x02, 0x08, 0x20, 0x80, 0x00, 0x30, 0x80, 0x00, 0x02, 0x08, 0x20, 
  0x80, 0x00, 0x02, 0x08, 0x20, 0x80, 0x00, 0x20, 0x80, 0x00, 0x02, 0x08, 
  0x20, 0x80, 0x00, 0x02, 0x08, 0x20, 0x80, 0x00, 0x60, 0x80, 0x00, 0x02, 
  0x08, 0x20, 0x80, 0x00, 0x02, 0x08, 0x20, 0x80, 0x00, 0xFF, 0xFF, 0xFF, 
  0xFF, 0xFF, 0xFF, 0xFF, 0xFF, 0xFF, 0xFF, 0xFF, 0xFF, 0x0F, 0x30, 0x80, 
  0x00, 0x02, 0x08, 0x20, 0x80, 0x00, 0x02, 0x08, 0x20, 0x80, 0x00, 0x20, 
  0x80, 0x00, 0x02, 0x08, 0x20, 0x80, 0x00, 0x02, 0x08, 0x20, 0x80, 0x00, 
  0x60, 0x80, 0x00, 0x02, 0x08, 0x20, 0x80, 0x00, 0x02, 0x08, 0x20, 0x80, 
  0x00, 0x30, 0x80, 0x00, 0x02, 0x08, 0x20, 0x80, 0x00, 0x02, 0x08, 0x20, 
  0x80, 0x00, 0x20, 0x80, 0x00, 0x02, 0x08, 0x20, 0x80, 0x00, 0x02, 0x08, 
  0x20, 0x80, 0x00, 0x20, 0x80, 0x00, 0x02, 0x08, 0x20, 0x80, 0x00, 0x02, 
  0x08, 0x20, 0x80, 0x00, 0x20, 0x80, 0x00, 0x02, 0x08, 0x20, 0x80, 0x00, 
  0x02, 0x08, 0x20, 0x80, 0x00, 0x30, 0x80, 0x00, 0x02, 0x08, 0x20, 0x80, 
  0x00, 0x02, 0x08, 0x20, 0x80, 0x00, 0x60, 0x80, 0x00, 0x02, 0x08, 0x20, 
  0x80, 0x00, 0x02, 0x08, 0x20, 0x80, 0x00, 0xFF, 0xFF, 0xFF, 0xFF, 0xFF, 
  0xFF, 0xFF, 0xFF, 0xFF, 0xFF, 0xFF, 0xFF, 0x0F, 0x30, 0x80, 0x00, 0x02, 
  0x08, 0x20, 0x80, 0x00, 0x02, 0x08, 0x20, 0x80, 0x00, 0x20, 0x80, 0x00, 
  0x02, 0x08, 0x20, 0x80, 0x00, 0x02, 0x08, 0x20, 0x80, 0x00, 0x20, 0x80, 
  0x00, 0x02, 0x08, 0x20, 0x80, 0x00, 0x02, 0x08, 0x20, 0x80, 0x00, 0x30, 
  0x80, 0x00, 0x02, 0x08, 0x20, 0x80, 0x00, 0x02, 0x08, 0x20, 0x80, 0x00, 
  0x60, 0x80, 0x00, 0x02, 0x08, 0x20, 0x80, 0x00, 0x02, 0x08, 0x20, 0x80, 
  0x00, 0x30, 0x80, 0x00, 0x02, 0x08, 0x20, 0x80, 0x00, 0x02, 0x08, 0x20, 
  0x80, 0x00, 0x20, 0x80, 0x00, 0x02, 0x08, 0x20, 0x80, 0x00, 0x02, 0x08, 
  0x20, 0x80, 0x00, 0x20, 0x80, 0x00, 0x02, 0x08, 0x20, 0x80, 0x00, 0x02, 
  0x08, 0x20, 0x80, 0x00, 0x60, 0x80, 0x00, 0x02, 0x08, 0x20, 0x80, 0x00, 
  0x02, 0x08, 0x20, 0x80, 0x00, 0xFF, 0xFF, 0xFF, 0xFF, 0xFF, 0xFF, 0xFF, 
  0xFF, 0xFF, 0xFF, 0xFF, 0xFF, 0x0F, 0x30, 0x80, 0x00, 0x02, 0x08, 0x20, 
  0x80, 0x00, 0x02, 0x08, 0x20, 0x80, 0x00, 0x20, 0x80, 0x00, 0x02, 0x08, 
  0x20, 0x80, 0x00, 0x02, 0x08, 0x20, 0x80, 0x00, 0x60, 0x80, 0x00, 0x02, 
  0x08, 0x20, 0x80, 0x00, 0x02, 0x08, 0x20, 0x80, 0x00, 0x20, 0x80, 0x00, 
  0x02, 0x08, 0x20, 0x80, 0x00, 0x02, 0x08, 0x20, 0x80, 0x00, 0x30, 0x80, 
  0x00, 0x02, 0x08, 0x20, 0x80, 0x00, 0x02, 0x08, 0x20, 0x80, 0x00, 0x20, 
  0x80, 0x00, 0x02, 0x08, 0x20, 0x80, 0x00, 0x02, 0x08, 0x20, 0x80, 0x00, 
  0x60, 0x80, 0x00, 0x02, 0x08, 0x20, 0x80, 0x00, 0x02, 0x08, 0x20, 0x80, 
  0x00, 0x30, 0x80, 0x00, 0x02, 0x08, 0x20, 0x80, 0x00, 0x02, 0x08, 0x20, 
  0x80, 0x00, 0x20, 0x80, 0x00, 0x02, 0x08, 0x20, 0x80, 0x00, 0x02, 0x08, 
  0x20, 0x80, 0x00, 0xFF, 0xFF, 0xFF, 0xFF, 0xFF, 0xFF, 0xFF, 0xFF, 0xFF, 
  0xFF, 0xFF, 0xFF, 0x0F, 0x20, 0x80, 0x00, 0x02, 0x08, 0x20, 0x80, 0x00, 
  0x02, 0x08, 0x20, 0x80, 0x00, 0x30, 0x80, 0x00, 0x02, 0x08, 0x20, 0x80, 
  0x00, 0x02, 0x08, 0x20, 0x80, 0x00, 0x60, 0x80, 0x00, 0x02, 0x08, 0x20, 
  0x80, 0x00, 0x02, 0x08, 0x20, 0x80, 0x00, 0x20, 0x80, 0x00, 0x02, 0x08, 
  0x20, 0x80, 0x00, 0x02, 0x08, 0x20, 0x80, 0x00, 0x30, 0x80, 0x00, 0x02, 
  0x08, 0x20, 0x80, 0x00, 0x02, 0x08, 0x20, 0x80, 0x00, 0x20, 0x80, 0x00, 
  0x02, 0x08, 0x20, 0x80, 0x00, 0x02, 0x08, 0x20, 0x80, 0x00, 0x20, 0x80, 
  0x00, 0x02, 0x08, 0x20, 0x80, 0x00, 0x02, 0x08, 0x20, 0x80, 0x00, 0x30, 
  0x80, 0x00, 0x02, 0x08, 0x20, 0x80, 0x00, 0x02, 0x08, 0x20, 0x80, 0x00, 
  0x30, 0x80, 0x00, 0x02, 0x08, 0x20, 0x80, 0x00, 0x02, 0x08, 0x20, 0x80, 
  0x00, 0xFF, 0xFF, 0xFF, 0xFF, 0xFF, 0xFF, 0xFF, 0xFF, 0xFF, 0xFF, 0xFF, 
  0xFF, 0x0F, 0x20, 0x80, 0x00, 0x02, 0x08, 0x20, 0x80, 0x00, 0x02, 0x08, 
  0x20, 0x80, 0x00, 0x20, 0x80, 0x00, 0x02, 0x08, 0x20, 0x80, 0x00, 0x02, 
  0x08, 0x20, 0x80, 0x00, 0x60, 0x80, 0x00, 0x02, 0x08, 0x20, 0x80, 0x00, 
  0x02, 0x08, 0x20, 0x80, 0x00, 0x20, 0x80, 0x00, 0x02, 0x08, 0x20, 0x80, 
  0x00, 0x02, 0x08, 0x20, 0x80, 0x00, 0x30, 0x80, 0x00, 0x02, 0x08, 0x20, 
  0x80, 0x00, 0x02, 0x08, 0x20, 0x80, 0x00, 0x20, 0x80, 0x00, 0x02, 0x08, 
  0x20, 0x80, 0x00, 0x02, 0x08, 0x20, 0x80, 0x00, 0x60, 0x80, 0x00, 0x02, 
  0x08, 0x20, 0x80, 0x00, 0x02, 0x08, 0x20, 0x80, 0x00, 0x20, 0x80, 0x00, 
  0x02, 0x08, 0x20, 0x80, 0x00, 0x02, 0x08, 0x20, 0x80, 0x00, 0x30, 0x80, 
  0x00, 0x02, 0x08, 0x20, 0x80, 0x00, 0x02, 0x08, 0x20, 0x80, 0x00, 0xFF, 
  0xFF, 0xFF, 0xFF, 0xFF, 0xFF, 0xFF, 0xFF, 0xFF, 0xFF, 0xFF, 0xFF, 0x0F, 
  0x60, 0x80, 0x00, 0x02, 0x08, 0x20, 0x80, 0x00, 0x02, 0x08, 0x20, 0x80, 
  0x00, 0x30, 0x80, 0x00, 0x02, 0x08, 0x20, 0x80, 0x00, 0x02, 0x08, 0x20, 
  0x80, 0x00, 0x20, 0x80, 0x00, 0x02, 0x08, 0x20, 0x80, 0x00, 0x02, 0x08, 
  0x20, 0x80, 0x00, 0x20, 0x80, 0x00, 0x02, 0x08, 0x20, 0x80, 0x00, 0x02, 
  0x08, 0x20, 0x80, 0x00, };
