#define heavy-rain.svg_width 12
#define heavy-rain.svg_height 24
static char heavy-rain.svg_bits[] = {
  0x0C, 0x00, 0x0C, 0x00, 0x0C, 0x00, 0x0C, 0x00, 0x0C, 0x03, 0x8C, 0x07, 
  0x8C, 0x07, 0x0C, 0x03, 0x0C, 0x00, 0x0C, 0x00, 0x0C, 0x00, 0x0C, 0x00, 
  0x00, 0x03, 0x00, 0x03, 0x00, 0x03, 0x00, 0x03, 0x0C, 0x03, 0x1E, 0x03, 
  0x1E, 0x03, 0x0C, 0x03, 0x00, 0x03, 0x00, 0x03, 0x00, 0x03, 0x00, 0x03, 
  };
