#define hexagons.svg_width 28
#define hexagons.svg_height 49
static char hexagons.svg_bits[] = {
  0x00, 0x98, 0x01, 0x00, 0x00, 0x98, 0x01, 0x00, 0x00, 0x98, 0x01, 0x00, 
  0x00, 0x98, 0x01, 0x00, 0x00, 0x98, 0x01, 0x00, 0x00, 0x98, 0x01, 0x00, 
  0x00, 0x98, 0x01, 0x00, 0x00, 0x9E, 0x07, 0x00, 0x80, 0x0F, 0x1E, 0x00, 
  0xE0, 0x21, 0x7C, 0x00, 0xF0, 0xF0, 0xE0, 0x00, 0x3C, 0xFC, 0xC3, 0x03, 
  0x0F, 0x0F, 0x0F, 0x0F, 0xC7, 0x07, 0x3E, 0x0C, 0xE1, 0x01, 0x78, 0x08, 
  0x78, 0x00, 0xE0, 0x01, 0x1E, 0x00, 0x80, 0x07, 0x0E, 0x00, 0x00, 0x07, 
  0x06, 0x00, 0x00, 0x06, 0x06, 0x00, 0x00, 0x06, 0x06, 0x00, 0x00, 0x06, 
  0x06, 0x00, 0x00, 0x06, 0x06, 0x00, 0x00, 0x06, 0x06, 0x00, 0x00, 0x06, 
  0x06, 0x00, 0x00, 0x06, 0x06, 0x00, 0x00, 0x06, 0x06, 0x00, 0x00, 0x06, 
  0x06, 0x00, 0x00, 0x06, 0x06, 0x00, 0x00, 0x06, 0x06, 0x00, 0x00, 0x06, 
  0x06, 0x00, 0x00, 0x06, 0x1E, 0x00, 0x80, 0x07, 0x7C, 0x00, 0xC0, 0x03, 
  0xF0, 0x00, 0xF0, 0x00, 0xC3, 0x03, 0x3C, 0x0C, 0x0F, 0x0F, 0x1F, 0x0F, 
  0x1E, 0xDE, 0x87, 0x07, 0x78, 0xF8, 0xE1, 0x01, 0xF0, 0x71, 0x78, 0x00, 
  0xC0, 0x03, 0x3C, 0x00, 0x00, 0x0F, 0x0F, 0x00, 0x00, 0x9C, 0x03, 0x00, 
  0x00, 0x98, 0x01, 0x00, 0x00, 0x98, 0x01, 0x00, 0x00, 0x98, 0x01, 0x00, 
  0x00, 0x98, 0x01, 0x00, 0x00, 0x98, 0x01, 0x00, 0x00, 0x98, 0x01, 0x00, 
  0x00, 0x98, 0x01, 0x00, };
