#define leaf.svg_width 80
#define leaf.svg_height 40
static char leaf.svg_bits[] = {
  0x73, 0x00, 0x0F, 0x00, 0x00, 0x00, 0x80, 0xFE, 0x01, 0x00, 0x3B, 0x80, 
  0x03, 0x00, 0x00, 0x00, 0xF0, 0xFF, 0x01, 0x00, 0x1F, 0xE0, 0x01, 0x00, 
  0x00, 0x00, 0xFC, 0xC1, 0x03, 0x00, 0x0F, 0xFE, 0x00, 0x00, 0x00, 0x00, 
  0x1E, 0xE0, 0x03, 0x00, 0xFE, 0x1F, 0x00, 0x00, 0x00, 0x80, 0x07, 0x70, 
  0x03, 0x00, 0xFE, 0x05, 0x00, 0x00, 0x00, 0xC0, 0x07, 0x38, 0x03, 0x00, 
  0x00, 0x00, 0x00, 0x00, 0x00, 0xE0, 0x07, 0x1C, 0x03, 0x00, 0x00, 0x00, 
  0x00, 0x00, 0x00, 0x60, 0x06, 0x8E, 0x03, 0x00, 0x00, 0x00, 0x00, 0x00, 
  0x00, 0x30, 0x06, 0x07, 0x03, 0x00, 0x00, 0x00, 0x00, 0x00, 0x00, 0x38, 
  0x86, 0x83, 0x01, 0x00, 0x00, 0x00, 0x00, 0x00, 0x00, 0x1C, 0xC6, 0x81, 
  0x03, 0x00, 0x00, 0x00, 0x00, 0x00, 0x00, 0x0C, 0xE6, 0x80, 0x01, 0x00, 
  0x00, 0x00, 0x00, 0x00, 0x00, 0x0C, 0x76, 0x80, 0x01, 0x00, 0x00, 0x00, 
  0x00, 0x00, 0x00, 0x06, 0x3F, 0xC0, 0x00, 0x00, 0x00, 0x00, 0x00, 0x00, 
  0x00, 0x06, 0x1E, 0xC0, 0x00, 0x00, 0x00, 0x00, 0x00, 0x00, 0x00, 0x07, 
  0x0E, 0xE0, 0x00, 0x00, 0x00, 0x00, 0x00, 0x00, 0x00, 0x07, 0x07, 0x70, 
  0x00, 0x00, 0x00, 0x00, 0x00, 0x00, 0x00, 0x83, 0x03, 0x30, 0x00, 0x00, 
  0x00, 0x00, 0x00, 0x00, 0x00, 0xC3, 0x01, 0x38, 0x00, 0x00, 0x00, 0x00, 
  0x00, 0x00, 0x00, 0xE3, 0x00, 0x1C, 0x00, 0x00, 0x00, 0x00, 0xFF, 0x01, 
  0x00, 0x73, 0x00, 0x0F, 0x00, 0x00, 0x00, 0xF0, 0xFF, 0x01, 0x00, 0x3B, 
  0x80, 0x03, 0x00, 0x00, 0x00, 0xFC, 0xC0, 0x03, 0x00, 0x1F, 0xE0, 0x01, 
  0x00, 0x00, 0x00, 0x1E, 0xE0, 0x03, 0x00, 0x0F, 0xFE, 0x00, 0x00, 0x00, 
  0x00, 0x07, 0x70, 0x03, 0x00, 0xFF, 0x1F, 0x00, 0x00, 0x00, 0xC0, 0x07, 
  0x38, 0x03, 0x00, 0xFC, 0x05, 0x00, 0x00, 0x00, 0xE0, 0x07, 0x1C, 0x03, 
  0x00, 0x00, 0x00, 0x00, 0x00, 0x00, 0x70, 0x06, 0x0E, 0x03, 0x00, 0x00, 
  0x00, 0x00, 0x00, 0x00, 0x30, 0x06, 0x07, 0x03, 0x00, 0x00, 0x00, 0x00, 
  0x00, 0x00, 0x38, 0x86, 0x03, 0x03, 0x00, 0x00, 0x00, 0x00, 0x00, 0x00, 
  0x1C, 0xC6, 0x81, 0x03, 0x00, 0x00, 0x00, 0x00, 0x00, 0x00, 0x0C, 0xE7, 
  0x80, 0x01, 0x00, 0x00, 0x00, 0x00, 0x00, 0x00, 0x0E, 0x76, 0x80, 0x01, 
  0x00, 0x00, 0x00, 0x00, 0x00, 0x00, 0x06, 0x3E, 0xC0, 0x00, 0x00, 0x00, 
  0x00, 0x00, 0x00, 0x00, 0x06, 0x1F, 0xC0, 0x00, 0x00, 0x00, 0x00, 0x00, 
  0x00, 0x00, 0x07, 0x0E, 0xE0, 0x00, 0x00, 0x00, 0x00, 0x00, 0x00, 0x00, 
  0x03, 0x07, 0x70, 0x00, 0x00, 0x00, 0x00, 0x00, 0x00, 0x00, 0x83, 0x03, 
  0x30, 0x00, 0x00, 0x00, 0x00, 0x00, 0x00, 0x00, 0xC3, 0x01, 0x18, 0x00, 
  0x00, 0x00, 0x00, 0x00, 0x00, 0x00, 0xE3, 0x00, 0x1C, 0x00, 0x00, 0x00, 
  0x00, 0x00, 0x00, 0x00, };
