#define lisbon.svg_width 80
#define lisbon.svg_height 80
static char lisbon.svg_bits[] = {
  0x00, 0x00, 0x00, 0x00, 0x00, 0x00, 0x00, 0x00, 0x00, 0x00, 0x66, 0x66, 
  0x66, 0x66, 0x66, 0x66, 0x66, 0x66, 0x66, 0x66, 0x66, 0x66, 0x66, 0x66, 
  0x66, 0x66, 0x66, 0x66, 0x66, 0x66, 0x00, 0x00, 0x00, 0x00, 0x00, 0x00, 
  0x00, 0x00, 0x00, 0x00, 0x00, 0x00, 0x00, 0x00, 0x00, 0x00, 0x00, 0x00, 
  0x00, 0x00, 0xE6, 0xFF, 0xFF, 0xFF, 0xFF, 0xFF, 0xFF, 0xFF, 0xFF, 0x67, 
  0xE6, 0xFF, 0xFF, 0xFF, 0xFF, 0xFF, 0xFF, 0xFF, 0xFF, 0x67, 0x60, 0x00, 
  0x00, 0x00, 0x00, 0x00, 0x00, 0x00, 0x00, 0x06, 0x60, 0x00, 0x00, 0x00, 
  0x00, 0x00, 0x00, 0x00, 0x00, 0x06, 0x66, 0xFE, 0xFF, 0xFF, 0xFF, 0xFF, 
  0xFF, 0xFF, 0x7F, 0x66, 0x66, 0xFE, 0xFF, 0xFF, 0xFF, 0xFF, 0xFF, 0xFF, 
  0x7F, 0x66, 0x60, 0x06, 0x00, 0x00, 0x00, 0x00, 0x00, 0x00, 0x60, 0x06, 
  0x60, 0x06, 0x00, 0x00, 0x00, 0x00, 0x00, 0x00, 0x60, 0x06, 0x66, 0xE6, 
  0xFF, 0x1F, 0x80, 0x01, 0xF0, 0xFF, 0x67, 0x66, 0x66, 0xE6, 0xFF, 0x03, 
  0x83, 0xC1, 0xC0, 0xFF, 0x67, 0x66, 0x60, 0x66, 0xE0, 0x01, 0x03, 0xC0, 
  0x80, 0x07, 0x66, 0x06, 0x60, 0x66, 0x70, 0x08, 0x00, 0x00, 0x20, 0x0E, 
  0x66, 0x06, 0x66, 0x66, 0x38, 0x0C, 0xF0, 0x1F, 0x30, 0x18, 0x66, 0x66, 
  0x66, 0x66, 0x1C, 0x04, 0xFF, 0xFF, 0x21, 0x78, 0x66, 0x66, 0x60, 0x66, 
  0x0E, 0xC0, 0x0F, 0xE0, 0x03, 0x70, 0x66, 0x06, 0x60, 0x66, 0x27, 0xF0, 
  0x00, 0x80, 0x0F, 0xE0, 0x66, 0x06, 0x66, 0xE6, 0x63, 0x3C, 0xE8, 0x0F, 
  0x3C, 0x8E, 0x67, 0x66, 0x66, 0xE6, 0x21, 0x0E, 0xFE, 0x7F, 0x78, 0x84, 
  0x67, 0x66, 0x60, 0xE6, 0x00, 0x87, 0x1F, 0xF0, 0xE1, 0x00, 0x67, 0x06, 
  0x60, 0xE6, 0x80, 0xE3, 0x01, 0x80, 0xC7, 0x01, 0x67, 0x06, 0x66, 0x66, 
  0xC0, 0x71, 0x80, 0x01, 0x8E, 0x03, 0x66, 0x66, 0x66, 0x26, 0xE2, 0x38, 
  0x80, 0x01, 0x1C, 0x67, 0x64, 0x66, 0x60, 0x26, 0x67, 0x0C, 0x80, 0x01, 
  0x38, 0xC6, 0x64, 0x06, 0x60, 0x06, 0x70, 0x06, 0x80, 0x01, 0x60, 0x0C, 
  0x60, 0x06, 0x66, 0x06, 0x38, 0x67, 0x80, 0x01, 0xE6, 0x0C, 0x60, 0x66, 
  0x66, 0x06, 0x18, 0xE3, 0x80, 0x01, 0xC7, 0x19, 0x60, 0x66, 0x60, 0x06, 
  0x98, 0xC1, 0x81, 0x81, 0x83, 0x19, 0x60, 0x06, 0x60, 0xC6, 0x8C, 0x81, 
  0x83, 0xC1, 0x81, 0x39, 0x63, 0x06, 0x66, 0xC6, 0xCC, 0x00, 0x87, 0xE1, 
  0x00, 0x33, 0x63, 0x66, 0x66, 0x06, 0xCC, 0x00, 0x8E, 0x71, 0x00, 0x33, 
  0x60, 0x66, 0x60, 0x06, 0xEE, 0x00, 0x9C, 0x39, 0x00, 0x63, 0x60, 0x06, 
  0x60, 0x06, 0x66, 0x00, 0xB8, 0x1D, 0x00, 0x66, 0x60, 0x06, 0x66, 0x06, 
  0x66, 0x00, 0xF0, 0x0F, 0x00, 0x66, 0x60, 0x66, 0x66, 0x06, 0x66, 0x00, 
  0xE0, 0x07, 0x00, 0x66, 0x60, 0x66, 0x60, 0x66, 0x66, 0xFE, 0xFF, 0xFF, 
  0x7F, 0x66, 0x66, 0x06, 0x60, 0x66, 0x66, 0xFE, 0xFF, 0xFF, 0x7F, 0x66, 
  0x66, 0x06, 0x66, 0x06, 0x66, 0x00, 0xE0, 0x07, 0x00, 0x66, 0x60, 0x66, 
  0x66, 0x06, 0x66, 0x00, 0xF0, 0x0F, 0x00, 0x66, 0x60, 0x66, 0x60, 0x06, 
  0xE6, 0x00, 0xB8, 0x1D, 0x00, 0x63, 0x60, 0x06, 0x60, 0x06, 0xC6, 0x00, 
  0x9C, 0x39, 0x00, 0x37, 0x60, 0x06, 0x66, 0x06, 0xCC, 0x00, 0x8E, 0x71, 
  0x00, 0x33, 0x60, 0x66, 0x66, 0xC6, 0xCC, 0x00, 0x87, 0xE1, 0x00, 0x33, 
  0x63, 0x66, 0x60, 0xC6, 0x9C, 0x81, 0x83, 0xC1, 0x81, 0x31, 0x63, 0x06, 
  0x60, 0x06, 0x98, 0xC1, 0x81, 0x81, 0x83, 0x19, 0x60, 0x06, 0x66, 0x06, 
  0x98, 0xE3, 0x80, 0x01, 0xC7, 0x18, 0x60, 0x66, 0x66, 0x06, 0x30, 0x67, 
  0x80, 0x01, 0xE6, 0x1C, 0x60, 0x66, 0x60, 0x06, 0x30, 0x06, 0x80, 0x01, 
  0x70, 0x0E, 0x60, 0x06, 0x60, 0x26, 0x63, 0x1C, 0x80, 0x01, 0x30, 0x66, 
  0x64, 0x06, 0x66, 0x26, 0xE6, 0x38, 0x80, 0x01, 0x1C, 0xC7, 0x64, 0x66, 
  0x66, 0x66, 0xC0, 0x71, 0x80, 0x01, 0x8E, 0x03, 0x66, 0x66, 0x60, 0xE6, 
  0x80, 0xE3, 0x01, 0x80, 0xC7, 0x01, 0x67, 0x06, 0x60, 0xE6, 0x00, 0xC7, 
  0x0F, 0xF0, 0xE3, 0x00, 0x67, 0x06, 0x66, 0xE6, 0x21, 0x0E, 0xFE, 0x7F, 
  0x70, 0x84, 0x67, 0x66, 0x66, 0xE6, 0x71, 0x3C, 0xF0, 0x0F, 0x3C, 0xCE, 
  0x67, 0x66, 0x60, 0x66, 0x07, 0xF0, 0x01, 0x80, 0x0F, 0xE0, 0x66, 0x06, 
  0x60, 0x66, 0x0E, 0xC0, 0x07, 0xE0, 0x07, 0x60, 0x66, 0x06, 0x66, 0x66, 
  0x1E, 0x04, 0xFF, 0xFF, 0x20, 0x38, 0x66, 0x66, 0x66, 0x66, 0x18, 0x0C, 
  0xF8, 0x1F, 0x30, 0x3C, 0x66, 0x66, 0x60, 0x66, 0x70, 0x04, 0x00, 0x00, 
  0x10, 0x0E, 0x66, 0x06, 0x60, 0x66, 0xE0, 0x01, 0x03, 0xC0, 0x80, 0x07, 
  0x66, 0x06, 0x66, 0xE6, 0xFF, 0x03, 0x83, 0xC1, 0xC0, 0xFF, 0x67, 0x66, 
  0x66, 0xE6, 0xFF, 0x0F, 0x80, 0x01, 0xF0, 0xFF, 0x67, 0x66, 0x60, 0x06, 
  0x00, 0x00, 0x00, 0x00, 0x00, 0x00, 0x60, 0x06, 0x60, 0x06, 0x00, 0x00, 
  0x00, 0x00, 0x00, 0x00, 0x60, 0x06, 0x66, 0xFE, 0xFF, 0xFF, 0xFF, 0xFF, 
  0xFF, 0xFF, 0x7F, 0x66, 0x66, 0xFE, 0xFF, 0xFF, 0xFF, 0xFF, 0xFF, 0xFF, 
  0x7F, 0x66, 0x60, 0x00, 0x00, 0x00, 0x00, 0x00, 0x00, 0x00, 0x00, 0x06, 
  0x60, 0x00, 0x00, 0x00, 0x00, 0x00, 0x00, 0x00, 0x00, 0x06, 0xE6, 0xFF, 
  0xFF, 0xFF, 0xFF, 0xFF, 0xFF, 0xFF, 0xFF, 0x67, 0xE6, 0xFF, 0xFF, 0xFF, 
  0xFF, 0xFF, 0xFF, 0xFF, 0xFF, 0x67, 0x00, 0x00, 0x00, 0x00, 0x00, 0x00, 
  0x00, 0x00, 0x00, 0x00, 0x00, 0x00, 0x00, 0x00, 0x00, 0x00, 0x00, 0x00, 
  0x00, 0x00, 0x66, 0x66, 0x66, 0x66, 0x66, 0x66, 0x66, 0x66, 0x66, 0x66, 
  0x66, 0x66, 0x66, 0x66, 0x66, 0x66, 0x66, 0x66, 0x66, 0x66, 0x00, 0x00, 
  0x00, 0x00, 0x00, 0x00, 0x00, 0x00, 0x00, 0x00, };
