#define melt.svg_width 24
#define melt.svg_height 20
static char melt.svg_bits[] = {
  0xF9, 0x00, 0xF0, 0xF0, 0x00, 0xF0, 0xF0, 0x00, 0xF0, 0xF0, 0x01, 0xF8, 
  0xF0, 0x07, 0xFE, 0xF0, 0x0F, 0xFF, 0xF0, 0x0F, 0xFF, 0xE0, 0x9F, 0x7F, 
  0x80, 0xFF, 0x1F, 0x00, 0xFF, 0x0F, 0x00, 0xFF, 0x0F, 0x00, 0xFE, 0x07, 
  0x06, 0xF8, 0x01, 0x0F, 0xF0, 0x00, 0x0F, 0xF0, 0x00, 0x1F, 0xF0, 0x80, 
  0x7F, 0xF0, 0xE0, 0xFF, 0xF0, 0xF0, 0xFF, 0xF0, 0xF0, 0xFF, 0x60, 0xF0, 
  };
