#define moroccan.svg_width 80
#define moroccan.svg_height 88
static char moroccan.svg_bits[] = {
  0x00, 0x00, 0x00, 0x00, 0x3C, 0x3C, 0x00, 0x00, 0x00, 0x00, 0x00, 0x00, 
  0x00, 0x00, 0x3C, 0x3C, 0x00, 0x00, 0x00, 0x00, 0x00, 0x00, 0x00, 0x00, 
  0x3C, 0x3C, 0x00, 0x00, 0x00, 0x00, 0x00, 0x00, 0x00, 0x00, 0x3E, 0x7C, 
  0x00, 0x00, 0x00, 0x00, 0x00, 0x00, 0x00, 0x00, 0x1E, 0x78, 0x00, 0x00, 
  0x00, 0x00, 0x00, 0x00, 0x00, 0x00, 0x1E, 0x78, 0x00, 0x00, 0x00, 0x00, 
  0x00, 0x00, 0x00, 0x00, 0x1F, 0xF8, 0x00, 0x00, 0x00, 0x00, 0x00, 0x00, 
  0x00, 0x00, 0x0F, 0xF0, 0x00, 0x00, 0x00, 0x00, 0x00, 0x00, 0x00, 0x80, 
  0x0F, 0xF0, 0x01, 0x00, 0x00, 0x00, 0x00, 0x00, 0x00, 0xC0, 0x07, 0xE0, 
  0x03, 0x00, 0x00, 0x00, 0x00, 0x00, 0x00, 0xE0, 0x87, 0xE1, 0x07, 0x00, 
  0x00, 0x00, 0x00, 0x00, 0x00, 0xF0, 0x83, 0xC1, 0x0F, 0x00, 0x00, 0x00, 
  0x00, 0x00, 0x00, 0xFC, 0xC1, 0x83, 0x3F, 0x00, 0x00, 0x00, 0x00, 0x00, 
  0x80, 0xFF, 0xE0, 0x07, 0xFF, 0x01, 0x00, 0x00, 0x00, 0xC0, 0xFF, 0x7F, 
  0xF0, 0x0F, 0xFE, 0xFF, 0x03, 0x00, 0x00, 0xC0, 0xFF, 0x1F, 0xF0, 0x0F, 
  0xF8, 0xFF, 0x03, 0x00, 0x00, 0xC0, 0xFF, 0x07, 0xFC, 0x1F, 0xE0, 0xFF, 
  0x03, 0x00, 0x00, 0xC0, 0xFF, 0x01, 0x7E, 0x7E, 0x80, 0xFE, 0x03, 0x00, 
  0x00, 0xC0, 0x03, 0x00, 0x3F, 0xFC, 0x00, 0xC0, 0x03, 0x00, 0x00, 0xF8, 
  0x03, 0xC0, 0x1F, 0xF8, 0x03, 0xC0, 0x1F, 0x00, 0x00, 0xFE, 0x03, 0xF0, 
  0x0F, 0xF0, 0x0F, 0xC0, 0x7F, 0x00, 0x80, 0xFF, 0x03, 0xFE, 0x07, 0xE0, 
  0xFF, 0xC1, 0xFF, 0x01, 0xE0, 0xFF, 0xC0, 0xFF, 0x01, 0x80, 0xFF, 0x03, 
  0xFF, 0x07, 0xF0, 0x0F, 0xC0, 0x7F, 0x00, 0x00, 0xFE, 0x03, 0xF0, 0x0F, 
  0xF8, 0x03, 0xC0, 0x1F, 0x00, 0x00, 0xF8, 0x03, 0xC0, 0x1F, 0xFC, 0x00, 
  0xC0, 0x03, 0x00, 0x00, 0xC0, 0x03, 0x80, 0x3F, 0x7E, 0x00, 0xFF, 0x03, 
  0x00, 0x00, 0xC0, 0xFF, 0x00, 0x7E, 0x1F, 0xE0, 0xFF, 0x03, 0x00, 0x00, 
  0xC0, 0xFF, 0x07, 0xFC, 0x1F, 0xF8, 0xFF, 0x03, 0x00, 0x00, 0xC0, 0xFF, 
  0x1F, 0xF0, 0x07, 0xFE, 0xFF, 0x03, 0x00, 0x00, 0xC0, 0xFF, 0x7F, 0xE0, 
  0x07, 0xFF, 0x00, 0x00, 0x00, 0x00, 0x00, 0x80, 0xFF, 0xE0, 0x83, 0x3F, 
  0x00, 0x00, 0x00, 0x00, 0x00, 0x00, 0xFC, 0xC1, 0xC1, 0x0F, 0x00, 0x00, 
  0x00, 0x00, 0x00, 0x00, 0xF0, 0xC3, 0xE1, 0x07, 0x00, 0x00, 0x00, 0x00, 
  0x00, 0x00, 0xE0, 0x87, 0xE0, 0x03, 0x00, 0x00, 0x00, 0x00, 0x00, 0x00, 
  0xC0, 0x07, 0xF0, 0x01, 0x00, 0x00, 0x00, 0x00, 0x00, 0x00, 0x80, 0x0F, 
  0xF0, 0x00, 0x00, 0x00, 0x00, 0x00, 0x00, 0x00, 0x00, 0x0F, 0xF8, 0x00, 
  0x00, 0x00, 0x00, 0x00, 0x00, 0x00, 0x00, 0x1F, 0x78, 0x00, 0x00, 0x00, 
  0x00, 0x00, 0x00, 0x00, 0x00, 0x1E, 0x78, 0x00, 0x00, 0x00, 0x00, 0x00, 
  0x00, 0x00, 0x00, 0x1E, 0x3C, 0x00, 0x00, 0x00, 0x00, 0x00, 0x00, 0x00, 
  0x00, 0x3E, 0x3C, 0x00, 0x00, 0x00, 0x00, 0x00, 0x00, 0x00, 0x00, 0x3C, 
  0x3C, 0x00, 0x00, 0x00, 0x00, 0x00, 0x00, 0x00, 0x00, 0x3C, 0x3C, 0x00, 
  0x00, 0x00, 0x00, 0x00, 0x00, 0x00, 0x00, 0x3C, 0x3C, 0x00, 0x00, 0x00, 
  0x00, 0x00, 0x00, 0x00, 0x00, 0x3C, 0x3C, 0x00, 0x00, 0x00, 0x00, 0x00, 
  0x00, 0x00, 0x00, 0x3C, 0x3C, 0x00, 0x00, 0x00, 0x00, 0x00, 0x00, 0x00, 
  0x00, 0x3C, 0x7C, 0x00, 0x00, 0x00, 0x00, 0x00, 0x00, 0x00, 0x00, 0x3E, 
  0x78, 0x00, 0x00, 0x00, 0x00, 0x00, 0x00, 0x00, 0x00, 0x1E, 0x78, 0x00, 
  0x00, 0x00, 0x00, 0x00, 0x00, 0x00, 0x00, 0x1E, 0xF8, 0x00, 0x00, 0x00, 
  0x00, 0x00, 0x00, 0x00, 0x00, 0x1F, 0xF0, 0x00, 0x00, 0x00, 0x00, 0x00, 
  0x00, 0x00, 0x00, 0x0F, 0xF0, 0x01, 0x00, 0x00, 0x00, 0x00, 0x00, 0x00, 
  0x80, 0x0F, 0xE0, 0x03, 0x00, 0x00, 0x00, 0x00, 0x00, 0x00, 0xC0, 0x07, 
  0xE1, 0x07, 0x00, 0x00, 0x00, 0x00, 0x00, 0x00, 0xE0, 0x87, 0xC1, 0x0F, 
  0x00, 0x00, 0x00, 0x00, 0x00, 0x00, 0xF0, 0x83, 0x83, 0x3F, 0x00, 0x00, 
  0x00, 0x00, 0x00, 0x00, 0xFC, 0xC1, 0x07, 0xFF, 0x01, 0x00, 0x00, 0x00, 
  0x00, 0x80, 0xFF, 0xE0, 0x0F, 0xFE, 0xFF, 0x03, 0x00, 0x00, 0xC0, 0xFF, 
  0x7F, 0xE0, 0x0F, 0xF8, 0xFF, 0x03, 0x00, 0x00, 0xC0, 0xFF, 0x1F, 0xF8, 
  0x3F, 0xE0, 0xFF, 0x03, 0x00, 0x00, 0xC0, 0xFF, 0x07, 0xF8, 0x7E, 0x00, 
  0xFF, 0x03, 0x00, 0x00, 0xC0, 0xFF, 0x01, 0x7E, 0xFC, 0x01, 0xC0, 0x03, 
  0x00, 0x00, 0xC0, 0x03, 0x00, 0x3F, 0xF8, 0x03, 0xC0, 0x1F, 0x00, 0x00, 
  0xF8, 0x03, 0xC0, 0x1F, 0xF0, 0x0F, 0xC0, 0x7F, 0x00, 0x00, 0xFE, 0x03, 
  0xF0, 0x0F, 0xE0, 0xFF, 0xC0, 0xFF, 0x01, 0x80, 0xFF, 0x03, 0xFF, 0x07, 
  0x80, 0xFF, 0x03, 0xFF, 0x07, 0xE0, 0x7F, 0xC0, 0xFF, 0x01, 0x00, 0xFE, 
  0x03, 0xF0, 0x0F, 0xF0, 0x0F, 0xC0, 0x7F, 0x00, 0x00, 0xF8, 0x03, 0xC0, 
  0x1F, 0xF8, 0x03, 0xC0, 0x1F, 0x00, 0x00, 0xC0, 0x03, 0x00, 0x3F, 0xFC, 
  0x00, 0xC0, 0x03, 0x00, 0x00, 0xC0, 0xFF, 0x00, 0x7E, 0x7E, 0x80, 0xFF, 
  0x03, 0x00, 0x00, 0xC0, 0xFF, 0x07, 0xFC, 0x3F, 0xE0, 0xFF, 0x03, 0x00, 
  0x00, 0xC0, 0xFF, 0x1F, 0xF0, 0x0F, 0xF8, 0xFF, 0x03, 0x00, 0x00, 0xC0, 
  0xFF, 0x7F, 0xF0, 0x0F, 0xFE, 0xFF, 0x03, 0x00, 0x00, 0x00, 0x80, 0xFF, 
  0xE0, 0x07, 0xFF, 0x01, 0x00, 0x00, 0x00, 0x00, 0x00, 0xFC, 0xC1, 0x83, 
  0x3F, 0x00, 0x00, 0x00, 0x00, 0x00, 0x00, 0xF0, 0x83, 0xC1, 0x0F, 0x00, 
  0x00, 0x00, 0x00, 0x00, 0x00, 0xE0, 0x87, 0xE1, 0x07, 0x00, 0x00, 0x00, 
  0x00, 0x00, 0x00, 0xC0, 0x07, 0xE0, 0x03, 0x00, 0x00, 0x00, 0x00, 0x00, 
  0x00, 0x80, 0x0F, 0xF0, 0x01, 0x00, 0x00, 0x00, 0x00, 0x00, 0x00, 0x00, 
  0x0F, 0xF8, 0x00, 0x00, 0x00, 0x00, 0x00, 0x00, 0x00, 0x00, 0x1F, 0xF8, 
  0x00, 0x00, 0x00, 0x00, 0x00, 0x00, 0x00, 0x00, 0x1E, 0x78, 0x00, 0x00, 
  0x00, 0x00, 0x00, 0x00, 0x00, 0x00, 0x1E, 0x78, 0x00, 0x00, 0x00, 0x00, 
  0x00, 0x00, 0x00, 0x00, 0x3E, 0x7C, 0x00, 0x00, 0x00, 0x00, 0x00, 0x00, 
  0x00, 0x00, 0x3C, 0x3C, 0x00, 0x00, 0x00, 0x00, 0x00, 0x00, 0x00, 0x00, 
  0x3C, 0x3C, 0x00, 0x00, 0x00, 0x00, 0x00, 0x00, 0x00, 0x00, 0x3C, 0x3C, 
  0x00, 0x00, 0x00, 0x00, };
