#define pie-factory.svg_width 60
#define pie-factory.svg_height 60
static char pie-factory.svg_bits[] = {
  0xFF, 0x01, 0x00, 0x78, 0x00, 0x00, 0xFE, 0x0F, 0xF0, 0x07, 0x00, 0xFC, 
  0x00, 0x80, 0x3F, 0x0C, 0x00, 0x1F, 0x00, 0xCE, 0x01, 0xE0, 0x03, 0x0C, 
  0x00, 0x78, 0x00, 0x87, 0x03, 0x78, 0x00, 0x0C, 0x00, 0xE0, 0x81, 0x03, 
  0x07, 0x1E, 0x00, 0x0C, 0x00, 0xC0, 0xC3, 0x01, 0x0E, 0x07, 0x00, 0x0C, 
  0x00, 0x00, 0xE7, 0x00, 0x9C, 0x03, 0x00, 0x0C, 0x00, 0x00, 0x7E, 0x00, 
  0xF8, 0x01, 0x00, 0x0C, 0x00, 0x00, 0x3C, 0x00, 0xF0, 0x00, 0x00, 0x0C, 
  0x00, 0x00, 0x3C, 0x00, 0xF0, 0x00, 0x00, 0x0C, 0x00, 0x00, 0x7E, 0x00, 
  0xF8, 0x01, 0x00, 0x0C, 0x00, 0x00, 0xE7, 0x00, 0x9C, 0x03, 0x00, 0x0C, 
  0x00, 0x80, 0xC3, 0x01, 0x0E, 0x07, 0x00, 0x0C, 0x00, 0xC0, 0x81, 0x01, 
  0x06, 0x0E, 0x00, 0x0C, 0x00, 0xE0, 0x00, 0x03, 0x03, 0x1C, 0x00, 0x0C, 
  0x00, 0x70, 0x00, 0x07, 0x03, 0x38, 0x00, 0x0C, 0x00, 0x38, 0x00, 0x86, 
  0x01, 0x70, 0x00, 0x0C, 0x00, 0x1C, 0x00, 0x86, 0x01, 0xE0, 0x00, 0x0C, 
  0x00, 0x0E, 0x00, 0xCC, 0x00, 0xC0, 0x01, 0x0C, 0x00, 0x07, 0x00, 0xCC, 
  0x00, 0x80, 0x03, 0x0C, 0x80, 0x03, 0x00, 0xDC, 0x00, 0x00, 0x07, 0x0C, 
  0xC0, 0x01, 0x00, 0x78, 0x00, 0x00, 0x0E, 0x0C, 0xE0, 0x00, 0x00, 0x78, 
  0x00, 0x00, 0x1C, 0x0C, 0x70, 0x00, 0x00, 0x78, 0x00, 0x00, 0x38, 0x0C, 
  0x38, 0x00, 0x00, 0x38, 0x00, 0x00, 0x70, 0x0C, 0x1C, 0x00, 0x00, 0x78, 
  0x00, 0x00, 0xE0, 0x0C, 0x0E, 0x00, 0x00, 0x30, 0x00, 0x00, 0xC0, 0x0D, 
  0x07, 0x00, 0x00, 0x30, 0x00, 0x00, 0x80, 0x0F, 0x03, 0x00, 0x00, 0x30, 
  0x00, 0x00, 0x00, 0x0F, 0xFF, 0xFF, 0xFF, 0xFF, 0xFF, 0xFF, 0xFF, 0x0F, 
  0xFF, 0xFF, 0xFF, 0xFF, 0xFF, 0xFF, 0xFF, 0x0F, 0x03, 0x00, 0x00, 0x30, 
  0x00, 0x00, 0x00, 0x0F, 0x07, 0x00, 0x00, 0x30, 0x00, 0x00, 0x80, 0x0F, 
  0x0E, 0x00, 0x00, 0x30, 0x00, 0x00, 0xC0, 0x0D, 0x1C, 0x00, 0x00, 0x38, 
  0x00, 0x00, 0xE0, 0x0C, 0x38, 0x00, 0x00, 0x70, 0x00, 0x00, 0x70, 0x0C, 
  0x70, 0x00, 0x00, 0x78, 0x00, 0x00, 0x38, 0x0C, 0xE0, 0x00, 0x00, 0x78, 
  0x00, 0x00, 0x1C, 0x0C, 0xC0, 0x01, 0x00, 0x78, 0x00, 0x00, 0x0E, 0x0C, 
  0x80, 0x03, 0x00, 0xEC, 0x00, 0x00, 0x07, 0x0C, 0x00, 0x07, 0x00, 0xCC, 
  0x00, 0x80, 0x03, 0x0C, 0x00, 0x0E, 0x00, 0xCE, 0x00, 0xC0, 0x01, 0x0C, 
  0x00, 0x1C, 0x00, 0x86, 0x01, 0xE0, 0x00, 0x0C, 0x00, 0x38, 0x00, 0x86, 
  0x01, 0x70, 0x00, 0x0C, 0x00, 0x70, 0x00, 0x03, 0x03, 0x38, 0x00, 0x0C, 
  0x00, 0xE0, 0x80, 0x03, 0x07, 0x1C, 0x00, 0x0C, 0x00, 0xC0, 0x81, 0x01, 
  0x06, 0x0E, 0x00, 0x0C, 0x00, 0x80, 0xC3, 0x01, 0x0E, 0x07, 0x00, 0x0C, 
  0x00, 0x00, 0xE7, 0x00, 0x9C, 0x03, 0x00, 0x0C, 0x00, 0x00, 0x7E, 0x00, 
  0xF8, 0x01, 0x00, 0x0C, 0x00, 0x00, 0x3C, 0x00, 0xF0, 0x00, 0x00, 0x0C, 
  0x00, 0x00, 0x3C, 0x00, 0xF0, 0x00, 0x00, 0x0C, 0x00, 0x00, 0x7E, 0x00, 
  0xF8, 0x01, 0x00, 0x0C, 0x00, 0x00, 0xE7, 0x00, 0x9C, 0x03, 0x00, 0x0C, 
  0x00, 0xC0, 0xC3, 0x01, 0x0E, 0x07, 0x00, 0x0C, 0x00, 0xE0, 0x81, 0x03, 
  0x07, 0x3E, 0x00, 0x0C, 0x00, 0x78, 0x00, 0x87, 0x03, 0x78, 0x00, 0x0C, 
  0x00, 0x1F, 0x00, 0xCE, 0x01, 0xE0, 0x03, 0x0C, 0xF8, 0x07, 0x00, 0xFC, 
  0x00, 0x80, 0x7F, 0x0C, 0xFF, 0x01, 0x00, 0x78, 0x00, 0x00, 0xFC, 0x0F, 
  };
