#define pixel-dots.svg_width 16
#define pixel-dots.svg_height 16
static char pixel-dots.svg_bits[] = {
  0xFF, 0xFF, 0xFF, 0xFF, 0xFF, 0x03, 0xFF, 0x03, 0xCF, 0x33, 0xCF, 0x33, 
  0xFF, 0x03, 0xFF, 0x03, 0xFF, 0xFF, 0xFF, 0xFF, 0x03, 0xFF, 0x03, 0xFF, 
  0x33, 0xCF, 0x33, 0xCF, 0x03, 0xFF, 0x03, 0xFF, };
