#define rails.svg_width 20
#define rails.svg_height 10
static char rails.svg_bits[] = {
  0x30, 0x00, 0x03, 0x30, 0x00, 0x03, 0x30, 0x00, 0x03, 0x30, 0x00, 0x03, 
  0xFC, 0xFF, 0x0F, 0xFC, 0xFF, 0x0F, 0x30, 0x00, 0x03, 0x30, 0x00, 0x03, 
  0x30, 0x00, 0x03, 0x30, 0x00, 0x03, };
