#define random-shapes.svg_width 80
#define random-shapes.svg_height 80
static char random-shapes.svg_bits[] = {
  0x00, 0x00, 0x00, 0x00, 0x00, 0x00, 0x1E, 0x00, 0x00, 0x00,
  0x00, 0x00, 0x00, 0x00, 0x00, 0x80, 0x7F, 0x00, 0x00, 0x00,
  0x00, 0x0c, 0x30, 0x00, 0x00, 0x80, 0x7F, 0x00, 0x00, 0x00,
  0x00, 0x0C, 0x30, 0x00, 0x00, 0xC0, 0xFF, 0x00, 0x00, 0x00,
  0x00, 0x0C, 0x30, 0x00, 0x00, 0xC0, 0xFF, 0x00, 0x00, 0x00,
  0x00, 0x0C, 0x30, 0x00, 0x00, 0x00, 0x00, 0xFF, 0x03, 0x00,
  0x00, 0x1E, 0x78, 0x00, 0x00, 0x00, 0x00, 0xFF, 0x03, 0x00,
  0x00, 0x1E, 0x78, 0x00, 0x00, 0x00, 0x00, 0xFE, 0x01, 0x00,
  0x00, 0x1E, 0x78, 0x00, 0x00, 0x00, 0x00, 0xFE, 0x01, 0x00,
  0x00, 0x1E, 0x78, 0x00, 0x00, 0x00, 0x00, 0x78, 0x00, 0x00,
  0x00, 0x3F, 0xFC, 0x00, 0x00, 0x00, 0x00, 0x00, 0x00, 0x00,
  0x00, 0x3F, 0xFC, 0x00, 0x00, 0x00, 0x00, 0x00, 0x00, 0x00,
  0x00, 0x3F, 0xFC, 0x00, 0x00, 0x00, 0x00, 0x00, 0x00, 0x00,
  0x00, 0x3f, 0xFC, 0x00, 0xF0, 0xF0, 0x00, 0x00, 0x00, 0x00,
  0x80, 0x7F, 0xFE, 0x01, 0xF0, 0xF0, 0x00, 0x00, 0x00, 0x00,
  0x80, 0x7F, 0xFE, 0x01, 0xF0, 0xF0, 0x00, 0x00, 0x00, 0x00,
  0x80, 0x7F, 0xFE, 0x01, 0xF0, 0xF0, 0x00, 0x00, 0x00, 0x00,
  0x80, 0x7F, 0xFE, 0x01, 0x00, 0x0F, 0x00, 0x00, 0x00, 0x00,
  0xC0, 0xFF, 0xFF, 0x03, 0x00, 0x0F, 0x00, 0x00, 0x00, 0x00,
  0xC0, 0xFF, 0xFF, 0x03, 0x00, 0x0F, 0x00, 0x00, 0x00, 0x00,
  0x00, 0x00, 0x00, 0x00, 0x00, 0x0F, 0x00, 0x00, 0x00, 0x00,
  0x00, 0x00, 0x00, 0x00, 0xF0, 0x00, 0x00, 0x00, 0x00, 0x00,
  0x00, 0x00, 0x00, 0x00, 0xF0, 0x00, 0x00, 0x00, 0x00, 0x00,
  0x00, 0x00, 0x00, 0x00, 0xF0, 0x00, 0x00, 0x00, 0x00, 0x00,
  0x00, 0x00, 0x00, 0x00, 0xF0, 0x00, 0x00, 0x00, 0x00, 0x00,
  0x00, 0x00, 0x00, 0x00, 0x00, 0x00, 0x78, 0xE0, 0x81, 0x07,
  0x00, 0x00, 0x00, 0x00, 0x00, 0x00, 0xfC, 0xF0, 0xC3, 0x0F,
  0x00, 0x00, 0x00, 0x00, 0x00, 0x00, 0xFC, 0xF0, 0xC3, 0x0F,
  0x00, 0x0F, 0x00, 0x00, 0x00, 0x00, 0xFC, 0xF0, 0xC3, 0x0F,
  0xC0, 0x3F, 0x00, 0x00, 0x00, 0x00, 0xFC, 0xF0, 0xC3, 0x0F,
  0xC0, 0x3F, 0x00, 0x00, 0x00, 0x00, 0x78, 0xE0, 0x81, 0x07,
  0xE0, 0x7F, 0x00, 0x00, 0x00, 0x00, 0x00, 0x00, 0x00, 0x00,
  0xE0, 0x7F, 0x00, 0x00, 0x00, 0x00, 0x00, 0x00, 0x00, 0x00,
  0x00, 0x80, 0xFF, 0x01, 0x00, 0x00, 0x00, 0x00, 0x00, 0x00,
  0x00, 0x80, 0xFF, 0x01, 0x00, 0x00, 0x00, 0x00, 0x00, 0x00,
  0x00, 0x00, 0xFF, 0x00, 0x00, 0x1E, 0x78, 0xE0, 0x81, 0x07,
  0x00, 0x00, 0xFF, 0x00, 0x00, 0x3f, 0xFc, 0xF0, 0xC3, 0x0f,
  0x00, 0x00, 0x3C, 0x00, 0x00, 0x3F, 0xFC, 0xF0, 0xC3, 0x0F,
  0x00, 0x00, 0x00, 0x00, 0x00, 0x3F, 0xFC, 0xF0, 0xC3, 0x0F,
  0x00, 0x00, 0x00, 0x00, 0x00, 0x3f, 0xFC, 0xF0, 0xc3, 0x0F,
  0x00, 0x00, 0x00, 0x00, 0x00, 0x1e, 0x78, 0xE0, 0x81, 0x07,
  0x00, 0x00, 0x00, 0x00, 0x00, 0x00, 0x00, 0x00, 0x00, 0x00,
  0x00, 0x00, 0x00, 0x00, 0x00, 0x00, 0x00, 0x00, 0x00, 0x00,
  0x00, 0x00, 0x00, 0x00, 0x00, 0x00, 0x00, 0x00, 0x00, 0x00,
  0x00, 0x00, 0x00, 0x00, 0x00, 0x00, 0x00, 0x00, 0x00, 0x00,
  0x00, 0x00, 0x00, 0x00, 0x00, 0x00, 0x00, 0xE0, 0x81, 0x07,
  0x00, 0x00, 0x00, 0x00, 0x00, 0x00, 0x00, 0xF0, 0xC3, 0x0f,
  0x00, 0x00, 0x00, 0x00, 0x00, 0x00, 0x00, 0xF0, 0xC3, 0x0F,
  0x00, 0x00, 0xF0, 0xFF, 0xFF, 0x00, 0x00, 0xF0, 0xC3, 0x0F,
  0x00, 0x00, 0xF0, 0xFF, 0xFF, 0x00, 0x00, 0xF0, 0xc3, 0x0F,
  0x00, 0x00, 0xF0, 0xFF, 0xFF, 0x00, 0x00, 0xE0, 0x81, 0x07,
  0x00, 0x00, 0xF0, 0xFF, 0xFF, 0x00, 0x00, 0x00, 0x00, 0x00,
  0x00, 0x00, 0x00, 0x00, 0x00, 0x00, 0x00, 0x00, 0x00, 0x00,
  0x00, 0x00, 0x00, 0x00, 0x00, 0x00, 0x00, 0x00, 0x00, 0x00,
  0x00, 0x00, 0x00, 0x00, 0x00, 0x00, 0x00, 0x00, 0x00, 0x00,
  0x00, 0x00, 0x00, 0x00, 0x00, 0x00, 0x00, 0x00, 0x00, 0x00,
  0xFF, 0xFF, 0xFF, 0xFF, 0xFF, 0x00, 0x00, 0x00, 0x00, 0x00,
  0xFF, 0xFF, 0xFF, 0xFF, 0xFF, 0x00, 0x00, 0x00, 0x00, 0x00,
  0xFF, 0xFF, 0xFF, 0xFF, 0xFF, 0x00, 0x00, 0x00, 0x00, 0x00,
  0xFF, 0xFF, 0xFF, 0xFF, 0xFF, 0x00, 0x00, 0x00, 0x00, 0x00,
  0x00, 0x00, 0x00, 0x00, 0x00, 0x00, 0x00, 0xF0, 0x00, 0x00,
  0x00, 0x00, 0x00, 0x00, 0x00, 0x00, 0x00, 0xF0, 0x00, 0x00,
  0x00, 0x00, 0x00, 0x00, 0x00, 0x00, 0x00, 0xF0, 0x00, 0x00,
  0x00, 0x00, 0x00, 0x00, 0x00, 0x00, 0x00, 0xF0, 0x00, 0x00,
  0xFF, 0xFF, 0xFF, 0x7F, 0x00, 0x00, 0x00, 0xFF, 0x0F, 0x00,
  0xFF, 0xFF, 0xFF, 0x7F, 0x00, 0x00, 0x00, 0xFF, 0x0F, 0x00,
  0xFF, 0xFF, 0xFF, 0x7F, 0x00, 0x00, 0x00, 0xFF, 0x0F, 0x00,
  0xFF, 0xFF, 0xFF, 0x7F, 0x00, 0x00, 0x00, 0xFF, 0x0F, 0x00,
  0x00, 0x00, 0x00, 0x00, 0x00, 0x00, 0x00, 0xF0, 0x00, 0x00,
  0x00, 0x00, 0x00, 0x00, 0x00, 0x00, 0x00, 0xF0, 0x00, 0x00,
  0x00, 0x00, 0x00, 0x00, 0x00, 0x00, 0x00, 0xF0, 0x00, 0x00,
  0x00, 0x00, 0x00, 0x00, 0x00, 0x00, 0x00, 0xF0, 0x00, 0x00,
  0xFF, 0xFF, 0xFF, 0xFF, 0xFF, 0x00, 0x00, 0x00, 0x00, 0x00,
  0xFF, 0xFF, 0xFF, 0xFF, 0xFF, 0x00, 0x00, 0x00, 0x00, 0x00,
  0xFF, 0xFF, 0xFF, 0xFF, 0xFF, 0x00, 0x00, 0x00, 0x00, 0x00,
  0xFF, 0xFF, 0xFF, 0xFF, 0xFF, 0x00, 0x00, 0x00, 0x00, 0x00,
  0x00, 0x00, 0x00, 0x00, 0x00, 0x00, 0x00, 0x00, 0x00, 0x00,
  0x00, 0x00, 0x00, 0x00, 0x00, 0x00, 0x00, 0x00, 0x00, 0x00,
  0x00, 0x00, 0x00, 0x00, 0x00, 0x00, 0x00, 0x00, 0x00, 0x00,
  0x00, 0x00, 0x00, 0x00, 0x00, 0x00, 0x00, 0x00, 0x00, 0x00, }; 
