#define rounded-plus-connected.svg_width 84
#define rounded-plus-connected.svg_height 84
static char rounded-plus-connected.svg_bits[] = {
  0x00, 0x00, 0x80, 0xFF, 0xFF, 0xFF, 0xFF, 0x1F, 0x00, 0x00, 0x00, 0x00, 
  0x00, 0x80, 0x01, 0x00, 0x06, 0x00, 0x18, 0x00, 0x00, 0x00, 0x00, 0x00, 
  0xC0, 0x01, 0x00, 0x06, 0x00, 0x18, 0x00, 0x00, 0x00, 0x00, 0x00, 0xC0, 
  0x00, 0x00, 0x06, 0x00, 0x30, 0x00, 0x00, 0x00, 0x00, 0x00, 0xC0, 0x00, 
  0x00, 0x06, 0x00, 0x70, 0x00, 0x00, 0x00, 0x00, 0x00, 0x70, 0x00, 0x00, 
  0x06, 0x00, 0x60, 0x00, 0x00, 0x00, 0x00, 0x00, 0x70, 0x00, 0x00, 0x06, 
  0x00, 0xC0, 0x00, 0x00, 0x00, 0x00, 0x00, 0x3C, 0x00, 0x00, 0x06, 0x00, 
  0xC0, 0x07, 0x00, 0x00, 0x00, 0xFF, 0x0F, 0x00, 0x00, 0x06, 0x00, 0x00, 
  0xFF, 0x0F, 0x00, 0x00, 0xFF, 0x03, 0x00, 0x00, 0x06, 0x00, 0x00, 0xFC, 
  0x0F, 0x00, 0x00, 0x03, 0x00, 0x00, 0x00, 0x06, 0x00, 0x00, 0x00, 0x0C, 
  0x00, 0x00, 0x03, 0x00, 0x00, 0x00, 0x06, 0x00, 0x00, 0x00, 0x0C, 0x00, 
  0x00, 0x03, 0x00, 0x00, 0x00, 0x06, 0x00, 0x00, 0x00, 0x0C, 0x00, 0x00, 
  0x03, 0x00, 0x00, 0x00, 0x06, 0x00, 0x00, 0x00, 0x0C, 0x00, 0x00, 0x03, 
  0x00, 0x00, 0x00, 0x06, 0x00, 0x00, 0x00, 0x0C, 0x00, 0x00, 0x03, 0x00, 
  0x00, 0x00, 0x06, 0x00, 0x00, 0x00, 0x0C, 0x00, 0x00, 0x03, 0x00, 0x00, 
  0x00, 0x06, 0x00, 0x00, 0x00, 0x0C, 0x00, 0x80, 0x03, 0x00, 0x00, 0x80, 
  0x3F, 0x00, 0x00, 0x00, 0x0C, 0x00, 0x80, 0x01, 0x00, 0x00, 0xE0, 0x7F, 
  0x00, 0x00, 0x00, 0x18, 0x00, 0x80, 0x01, 0x00, 0x00, 0x78, 0xE0, 0x01, 
  0x00, 0x00, 0x38, 0x00, 0xC0, 0x00, 0x00, 0x00, 0x3C, 0x80, 0x01, 0x00, 
  0x00, 0x30, 0x00, 0xF0, 0x00, 0x00, 0x00, 0x0C, 0x00, 0x07, 0x00, 0x00, 
  0x70, 0x00, 0x3C, 0x00, 0x00, 0x00, 0x06, 0x00, 0x06, 0x00, 0x00, 0xE0, 
  0x03, 0x1F, 0x00, 0x00, 0x00, 0x06, 0x00, 0x06, 0x00, 0x00, 0x80, 0x0F, 
  0x07, 0x00, 0x00, 0x00, 0x07, 0x00, 0x0C, 0x00, 0x00, 0x00, 0x0E, 0x01, 
  0x00, 0x00, 0x00, 0x03, 0x00, 0x0C, 0x00, 0x00, 0x00, 0x08, 0x01, 0x00, 
  0x00, 0x00, 0x03, 0x00, 0x0C, 0x00, 0x00, 0x00, 0x08, 0x01, 0x00, 0x00, 
  0x00, 0x03, 0x00, 0x0C, 0x00, 0x00, 0x00, 0x08, 0x01, 0x00, 0x00, 0x00, 
  0x03, 0x00, 0x0C, 0x00, 0x00, 0x00, 0x08, 0x01, 0x00, 0x00, 0x00, 0x03, 
  0x00, 0x0C, 0x00, 0x00, 0x00, 0x08, 0x01, 0x00, 0x00, 0x00, 0x03, 0x00, 
  0x0C, 0x00, 0x00, 0x00, 0x08, 0x01, 0x00, 0x00, 0x00, 0x03, 0x00, 0x0C, 
  0x00, 0x00, 0x00, 0x08, 0x01, 0x00, 0x00, 0xFF, 0x03, 0x00, 0xFC, 0x0F, 
  0x00, 0x00, 0x08, 0x01, 0x00, 0xC0, 0xFF, 0x03, 0x00, 0xFC, 0x3F, 0x00, 
  0x00, 0x08, 0x01, 0x00, 0xF0, 0x00, 0x00, 0x00, 0x00, 0xF8, 0x00, 0x00, 
  0x08, 0x01, 0x00, 0x78, 0x00, 0x00, 0x00, 0x00, 0xC0, 0x01, 0x00, 0x08, 
  0x01, 0x00, 0x18, 0x00, 0x00, 0x00, 0x00, 0x80, 0x01, 0x00, 0x08, 0x01, 
  0x00, 0x0C, 0x00, 0x00, 0x00, 0x00, 0x80, 0x03, 0x00, 0x08, 0x01, 0x00, 
  0x0C, 0x00, 0x00, 0x00, 0x00, 0x00, 0x03, 0x00, 0x08, 0x01, 0x00, 0x06, 
  0x00, 0x00, 0x00, 0x00, 0x00, 0x06, 0x00, 0x08, 0x01, 0x00, 0x06, 0x00, 
  0x00, 0x00, 0x00, 0x00, 0x06, 0x00, 0x08, 0xFF, 0xFF, 0x07, 0x00, 0x00, 
  0x00, 0x00, 0x00, 0xFE, 0xFF, 0x0F, 0xFF, 0xFF, 0x07, 0x00, 0x00, 0x00, 
  0x00, 0x00, 0xFE, 0xFF, 0x0F, 0x01, 0x00, 0x06, 0x00, 0x00, 0x00, 0x00, 
  0x00, 0x06, 0x00, 0x08, 0x01, 0x00, 0x06, 0x00, 0x00, 0x00, 0x00, 0x00, 
  0x06, 0x00, 0x08, 0x01, 0x00, 0x0C, 0x00, 0x00, 0x00, 0x00, 0x00, 0x03, 
  0x00, 0x08, 0x01, 0x00, 0x1C, 0x00, 0x00, 0x00, 0x00, 0x00, 0x03, 0x00, 
  0x08, 0x01, 0x00, 0x18, 0x00, 0x00, 0x00, 0x00, 0x80, 0x01, 0x00, 0x08, 
  0x01, 0x00, 0x38, 0x00, 0x00, 0x00, 0x00, 0xE0, 0x01, 0x00, 0x08, 0x01, 
  0x00, 0xE0, 0x00, 0x00, 0x00, 0x00, 0x70, 0x00, 0x00, 0x08, 0x01, 0x00, 
  0xC0, 0xFF, 0x03, 0x00, 0xFC, 0x3F, 0x00, 0x00, 0x08, 0x01, 0x00, 0x80, 
  0xFF, 0x03, 0x00, 0xFC, 0x0F, 0x00, 0x00, 0x08, 0x01, 0x00, 0x00, 0x00, 
  0x03, 0x00, 0x0C, 0x00, 0x00, 0x00, 0x08, 0x01, 0x00, 0x00, 0x00, 0x03, 
  0x00, 0x0C, 0x00, 0x00, 0x00, 0x08, 0x01, 0x00, 0x00, 0x00, 0x03, 0x00, 
  0x0C, 0x00, 0x00, 0x00, 0x08, 0x01, 0x00, 0x00, 0x00, 0x03, 0x00, 0x0C, 
  0x00, 0x00, 0x00, 0x08, 0x01, 0x00, 0x00, 0x00, 0x03, 0x00, 0x0C, 0x00, 
  0x00, 0x00, 0x08, 0x01, 0x00, 0x00, 0x00, 0x03, 0x00, 0x0C, 0x00, 0x00, 
  0x00, 0x08, 0x01, 0x00, 0x00, 0x00, 0x03, 0x00, 0x0C, 0x00, 0x00, 0x00, 
  0x08, 0x07, 0x00, 0x00, 0x00, 0x03, 0x00, 0x0E, 0x00, 0x00, 0x00, 0x0E, 
  0x1F, 0x00, 0x00, 0x00, 0x06, 0x00, 0x06, 0x00, 0x00, 0xC0, 0x0F, 0x78, 
  0x00, 0x00, 0x00, 0x06, 0x00, 0x06, 0x00, 0x00, 0xC0, 0x03, 0xE0, 0x00, 
  0x00, 0x00, 0x1C, 0x80, 0x03, 0x00, 0x00, 0x70, 0x00, 0xC0, 0x00, 0x00, 
  0x00, 0x1C, 0x80, 0x03, 0x00, 0x00, 0x30, 0x00, 0xC0, 0x01, 0x00, 0x00, 
  0x78, 0xE0, 0x01, 0x00, 0x00, 0x18, 0x00, 0x80, 0x01, 0x00, 0x00, 0xE0, 
  0x7F, 0x00, 0x00, 0x00, 0x18, 0x00, 0x00, 0x03, 0x00, 0x00, 0x80, 0x1F, 
  0x00, 0x00, 0x00, 0x1C, 0x00, 0x00, 0x03, 0x00, 0x00, 0x00, 0x06, 0x00, 
  0x00, 0x00, 0x0C, 0x00, 0x00, 0x03, 0x00, 0x00, 0x00, 0x06, 0x00, 0x00, 
  0x00, 0x0C, 0x00, 0x00, 0x03, 0x00, 0x00, 0x00, 0x06, 0x00, 0x00, 0x00, 
  0x0C, 0x00, 0x00, 0x03, 0x00, 0x00, 0x00, 0x06, 0x00, 0x00, 0x00, 0x0C, 
  0x00, 0x00, 0x03, 0x00, 0x00, 0x00, 0x06, 0x00, 0x00, 0x00, 0x0C, 0x00, 
  0x00, 0x03, 0x00, 0x00, 0x00, 0x06, 0x00, 0x00, 0x00, 0x0C, 0x00, 0x00, 
  0x03, 0x00, 0x00, 0x00, 0x06, 0x00, 0x00, 0x00, 0x0C, 0x00, 0x00, 0xFF, 
  0x03, 0x00, 0x00, 0x06, 0x00, 0x00, 0xFC, 0x0F, 0x00, 0x00, 0xFF, 0x0F, 
  0x00, 0x00, 0x06, 0x00, 0x00, 0xFF, 0x0F, 0x00, 0x00, 0x00, 0x3E, 0x00, 
  0x00, 0x06, 0x00, 0x80, 0x07, 0x00, 0x00, 0x00, 0x00, 0x30, 0x00, 0x00, 
  0x06, 0x00, 0xE0, 0x00, 0x00, 0x00, 0x00, 0x00, 0x70, 0x00, 0x00, 0x06, 
  0x00, 0xE0, 0x00, 0x00, 0x00, 0x00, 0x00, 0xC0, 0x00, 0x00, 0x06, 0x00, 
  0x30, 0x00, 0x00, 0x00, 0x00, 0x00, 0xC0, 0x00, 0x00, 0x06, 0x00, 0x30, 
  0x00, 0x00, 0x00, 0x00, 0x00, 0x80, 0x01, 0x00, 0x06, 0x00, 0x18, 0x00, 
  0x00, 0x00, 0x00, 0x00, 0x80, 0x01, 0x00, 0x06, 0x00, 0x18, 0x00, 0x00, 
  0x00, 0x00, 0x00, 0x80, 0xFF, 0xFF, 0xFF, 0xFF, 0x1F, 0x00, 0x00, 0x00, 
  };
