#define stamp-collection.svg_width 77
#define stamp-collection.svg_height 107
static char stamp-collection.svg_bits[] = {
  0x00, 0x00, 0x00, 0x00, 0x00, 0x00, 0x00, 0x00, 0x00, 0x00, 0xC0, 0x07, 
  0xE0, 0x03, 0xF0, 0x01, 0xF8, 0x00, 0x7C, 0x00, 0xC0, 0x07, 0xE0, 0x03, 
  0xF0, 0x01, 0xF8, 0x00, 0x7C, 0x00, 0x60, 0x0E, 0x70, 0x07, 0x98, 0x03, 
  0xCC, 0x01, 0xEE, 0x00, 0x60, 0x0C, 0x30, 0x0E, 0x18, 0x07, 0x8C, 0x03, 
  0xC7, 0x00, 0x78, 0x38, 0x1C, 0x1C, 0x0E, 0x0E, 0x07, 0x87, 0x83, 0x03, 
  0x1E, 0xF0, 0x0F, 0xF8, 0x0F, 0xFC, 0x03, 0xFE, 0x81, 0x0F, 0x0E, 0xE0, 
  0x07, 0xF0, 0x03, 0xF8, 0x01, 0xF8, 0x00, 0x0E, 0x06, 0x00, 0x00, 0x00, 
  0x00, 0x00, 0x00, 0x00, 0x00, 0x0C, 0x0E, 0x00, 0x00, 0x00, 0x00, 0x00, 
  0x00, 0x00, 0x00, 0x0E, 0x1E, 0x00, 0x00, 0x00, 0x00, 0x00, 0x00, 0x00, 
  0x00, 0x0F, 0x38, 0x00, 0x00, 0x00, 0x00, 0x00, 0x00, 0x00, 0x80, 0x03, 
  0x60, 0xF0, 0xFF, 0xFF, 0xFF, 0xFF, 0xFF, 0xFF, 0xC1, 0x00, 0xE0, 0xF0, 
  0xFF, 0xFF, 0xFF, 0xFF, 0xFF, 0xFF, 0xE1, 0x00, 0xC0, 0x30, 0x00, 0x00, 
  0x00, 0x00, 0x00, 0x80, 0x61, 0x00, 0xC0, 0x30, 0x00, 0x00, 0x00, 0x00, 
  0x00, 0x80, 0x61, 0x00, 0xC0, 0x30, 0x00, 0x00, 0x00, 0x00, 0x00, 0x80, 
  0x61, 0x00, 0xC0, 0x30, 0x00, 0x00, 0x00, 0x00, 0x00, 0x80, 0x61, 0x00, 
  0xE0, 0x30, 0x00, 0x00, 0x00, 0x00, 0x00, 0x80, 0xE1, 0x00, 0x60, 0x30, 
  0x00, 0x00, 0x00, 0x00, 0x00, 0x80, 0xC1, 0x00, 0x38, 0x30, 0x00, 0x00, 
  0x00, 0x00, 0x00, 0x80, 0x81, 0x03, 0x1E, 0x30, 0x00, 0x00, 0x00, 0x00, 
  0x00, 0x80, 0x81, 0x0F, 0x0E, 0x30, 0x00, 0x00, 0x00, 0x00, 0x00, 0x80, 
  0x01, 0x0E, 0x06, 0x30, 0x00, 0x00, 0x00, 0x00, 0x00, 0x80, 0x01, 0x0C, 
  0x0E, 0x30, 0x00, 0x00, 0x00, 0x00, 0x00, 0x80, 0x01, 0x0E, 0x1E, 0x30, 
  0x00, 0x00, 0x00, 0x00, 0x00, 0x80, 0x01, 0x0F, 0x38, 0x30, 0x00, 0x00, 
  0x00, 0x00, 0x00, 0x80, 0x81, 0x03, 0x70, 0x30, 0x00, 0x00, 0x00, 0x00, 
  0x00, 0x80, 0xC1, 0x00, 0xE0, 0x30, 0x00, 0x00, 0x00, 0x00, 0x00, 0x80, 
  0xE1, 0x00, 0xC0, 0x30, 0x00, 0x00, 0x00, 0x00, 0x00, 0x80, 0x61, 0x00, 
  0xC0, 0x30, 0x00, 0x00, 0x00, 0x00, 0x00, 0x80, 0x61, 0x00, 0xC0, 0x30, 
  0x00, 0x00, 0x00, 0x00, 0x00, 0x80, 0x61, 0x00, 0xC0, 0x30, 0x00, 0x00, 
  0x00, 0x00, 0x00, 0x80, 0x61, 0x00, 0x60, 0x30, 0x00, 0x00, 0x00, 0x00, 
  0x00, 0x80, 0xC1, 0x00, 0x70, 0x30, 0x00, 0x00, 0x00, 0x00, 0x00, 0x80, 
  0xC1, 0x00, 0x78, 0x30, 0x00, 0x00, 0x00, 0x00, 0x00, 0x80, 0xC1, 0x03, 
  0x1E, 0x30, 0x00, 0x00, 0x00, 0x00, 0x00, 0x80, 0x81, 0x0F, 0x0E, 0x30, 
  0x00, 0x00, 0x00, 0x00, 0x00, 0x80, 0x01, 0x0E, 0x06, 0x30, 0x00, 0x00, 
  0x00, 0x00, 0x00, 0x80, 0x01, 0x0C, 0x06, 0x30, 0x00, 0x00, 0x00, 0x00, 
  0x00, 0x80, 0x01, 0x0E, 0x1E, 0x30, 0x00, 0x00, 0x00, 0x00, 0x00, 0x80, 
  0x01, 0x0F, 0x78, 0x30, 0x00, 0x00, 0x00, 0x00, 0x00, 0x80, 0x81, 0x03, 
  0x70, 0x30, 0x00, 0x00, 0x00, 0x00, 0x00, 0x80, 0xC1, 0x01, 0x60, 0x30, 
  0x00, 0x00, 0x00, 0x00, 0x00, 0x80, 0xE1, 0x00, 0xC0, 0x30, 0x00, 0x00, 
  0x00, 0x00, 0x00, 0x80, 0x61, 0x00, 0xC0, 0x30, 0x00, 0x00, 0x00, 0x00, 
  0x00, 0x80, 0x61, 0x00, 0xC0, 0x30, 0x00, 0x00, 0x00, 0x00, 0x00, 0x80, 
  0x61, 0x00, 0xC0, 0x30, 0x00, 0x00, 0x00, 0x00, 0x00, 0x80, 0x61, 0x00, 
  0x60, 0x30, 0x00, 0x00, 0x00, 0x00, 0x00, 0x80, 0xE1, 0x00, 0x70, 0x30, 
  0x00, 0x00, 0x00, 0x00, 0x00, 0x80, 0xC1, 0x00, 0x38, 0x30, 0x00, 0x00, 
  0x00, 0x00, 0x00, 0x80, 0x81, 0x03, 0x3E, 0x30, 0x00, 0x00, 0x00, 0x00, 
  0x00, 0x80, 0x81, 0x0F, 0x0E, 0x30, 0x00, 0x00, 0x00, 0x00, 0x00, 0x80, 
  0x01, 0x0E, 0x06, 0x30, 0x00, 0x00, 0x00, 0x00, 0x00, 0x80, 0x01, 0x0C, 
  0x0E, 0x30, 0x00, 0x00, 0x00, 0x00, 0x00, 0x80, 0x01, 0x0E, 0x1E, 0x30, 
  0x00, 0x00, 0x00, 0x00, 0x00, 0x80, 0x01, 0x0F, 0x38, 0x30, 0x00, 0x00, 
  0x00, 0x00, 0x00, 0x80, 0x81, 0x03, 0x70, 0x30, 0x00, 0x00, 0x00, 0x00, 
  0x00, 0x80, 0xC1, 0x01, 0xE0, 0x30, 0x00, 0x00, 0x00, 0x00, 0x00, 0x80, 
  0xE1, 0x00, 0xC0, 0x30, 0x00, 0x00, 0x00, 0x00, 0x00, 0x80, 0x61, 0x00, 
  0xC0, 0x30, 0x00, 0x00, 0x00, 0x00, 0x00, 0x80, 0x61, 0x00, 0xC0, 0x30, 
  0x00, 0x00, 0x00, 0x00, 0x00, 0x80, 0x61, 0x00, 0xC0, 0x30, 0x00, 0x00, 
  0x00, 0x00, 0x00, 0x80, 0x61, 0x00, 0xC0, 0x30, 0x00, 0x00, 0x00, 0x00, 
  0x00, 0x80, 0xE1, 0x00, 0x60, 0x30, 0x00, 0x00, 0x00, 0x00, 0x00, 0x80, 
  0xC1, 0x00, 0x38, 0x30, 0x00, 0x00, 0x00, 0x00, 0x00, 0x80, 0x81, 0x03, 
  0x3E, 0x30, 0x00, 0x00, 0x00, 0x00, 0x00, 0x80, 0x81, 0x0F, 0x0E, 0x30, 
  0x00, 0x00, 0x00, 0x00, 0x00, 0x80, 0x01, 0x0E, 0x06, 0x30, 0x00, 0x00, 
  0x00, 0x00, 0x00, 0x80, 0x01, 0x0C, 0x0E, 0x30, 0x00, 0x00, 0x00, 0x00, 
  0x00, 0x80, 0x01, 0x0E, 0x1E, 0x30, 0x00, 0x00, 0x00, 0x00, 0x00, 0x80, 
  0x01, 0x0F, 0x38, 0x30, 0x00, 0x00, 0x00, 0x00, 0x00, 0x80, 0x81, 0x03, 
  0x70, 0x30, 0x00, 0x00, 0x00, 0x00, 0x00, 0x80, 0xC1, 0x00, 0x60, 0x30, 
  0x00, 0x00, 0x00, 0x00, 0x00, 0x80, 0xE1, 0x00, 0xC0, 0x30, 0x00, 0x00, 
  0x00, 0x00, 0x00, 0x80, 0x61, 0x00, 0xC0, 0x30, 0x00, 0x00, 0x00, 0x00, 
  0x00, 0x80, 0x61, 0x00, 0xC0, 0x30, 0x00, 0x00, 0x00, 0x00, 0x00, 0x80, 
  0x61, 0x00, 0xC0, 0x30, 0x00, 0x00, 0x00, 0x00, 0x00, 0x80, 0x61, 0x00, 
  0x60, 0x30, 0x00, 0x00, 0x00, 0x00, 0x00, 0x80, 0xE1, 0x00, 0x70, 0x30, 
  0x00, 0x00, 0x00, 0x00, 0x00, 0x80, 0xC1, 0x01, 0x38, 0x30, 0x00, 0x00, 
  0x00, 0x00, 0x00, 0x80, 0x81, 0x03, 0x3E, 0x30, 0x00, 0x00, 0x00, 0x00, 
  0x00, 0x80, 0x01, 0x0F, 0x0E, 0x30, 0x00, 0x00, 0x00, 0x00, 0x00, 0x80, 
  0x01, 0x0E, 0x06, 0x30, 0x00, 0x00, 0x00, 0x00, 0x00, 0x80, 0x01, 0x0C, 
  0x0E, 0x30, 0x00, 0x00, 0x00, 0x00, 0x00, 0x80, 0x01, 0x0E, 0x1E, 0x30, 
  0x00, 0x00, 0x00, 0x00, 0x00, 0x80, 0x81, 0x0F, 0x38, 0x30, 0x00, 0x00, 
  0x00, 0x00, 0x00, 0x80, 0x81, 0x03, 0x70, 0x30, 0x00, 0x00, 0x00, 0x00, 
  0x00, 0x80, 0xC1, 0x00, 0xE0, 0x30, 0x00, 0x00, 0x00, 0x00, 0x00, 0x80, 
  0xC1, 0x00, 0xC0, 0x30, 0x00, 0x00, 0x00, 0x00, 0x00, 0x80, 0x61, 0x00, 
  0xC0, 0x30, 0x00, 0x00, 0x00, 0x00, 0x00, 0x80, 0x61, 0x00, 0xC0, 0x30, 
  0x00, 0x00, 0x00, 0x00, 0x00, 0x80, 0x61, 0x00, 0xC0, 0x30, 0x00, 0x00, 
  0x00, 0x00, 0x00, 0x80, 0x61, 0x00, 0x60, 0xF0, 0xFF, 0xFF, 0xFF, 0xFF, 
  0xFF, 0xFF, 0xE1, 0x00, 0x70, 0xF0, 0xFF, 0xFF, 0xFF, 0xFF, 0xFF, 0xFF, 
  0xC1, 0x01, 0x38, 0x00, 0x00, 0x00, 0x00, 0x00, 0x00, 0x00, 0x80, 0x03, 
  0x3E, 0x00, 0x00, 0x00, 0x00, 0x00, 0x00, 0x00, 0x80, 0x0F, 0x0E, 0x00, 
  0x00, 0x00, 0x00, 0x00, 0x00, 0x00, 0x00, 0x0C, 0x06, 0x00, 0x00, 0x00, 
  0x00, 0x00, 0x00, 0x00, 0x00, 0x0C, 0x06, 0xC0, 0x07, 0xF0, 0x03, 0xF8, 
  0x01, 0xF8, 0x00, 0x0E, 0x1E, 0xF0, 0x1F, 0xF8, 0x07, 0xFC, 0x03, 0xFF, 
  0x01, 0x0F, 0x38, 0x38, 0x1C, 0x1C, 0x1E, 0x0E, 0x07, 0x87, 0x83, 0x03, 
  0x70, 0x1C, 0x30, 0x06, 0x18, 0x07, 0x8C, 0x01, 0xC7, 0x01, 0x60, 0x0E, 
  0x70, 0x07, 0x98, 0x03, 0xDC, 0x01, 0xE6, 0x00, 0xC0, 0x07, 0xE0, 0x03, 
  0xF0, 0x01, 0xF8, 0x00, 0x7C, 0x00, 0xC0, 0x07, 0xE0, 0x03, 0xF0, 0x01, 
  0xF8, 0x00, 0x7C, 0x00, 0x00, 0x00, 0x00, 0x00, 0x00, 0x00, 0x00, 0x00, 
  0x00, 0x00, };
