#define temple.svg_width 152
#define temple.svg_height 152
static char temple.svg_bits[] = {
  0x00, 0x00, 0x00, 0x30, 0x00, 0x00, 0x00, 0x00, 0x00, 0x00, 0x00, 0x00, 
  0x00, 0x00, 0x00, 0x03, 0x00, 0x00, 0xC0, 0x00, 0x00, 0x00, 0x30, 0x00, 
  0x00, 0x00, 0x00, 0x00, 0x00, 0x00, 0x00, 0x00, 0x00, 0x00, 0x03, 0x00, 
  0x00, 0xC0, 0x00, 0x00, 0x00, 0x30, 0x00, 0x00, 0x00, 0x00, 0x00, 0x00, 
  0x00, 0x00, 0x00, 0x00, 0x00, 0x03, 0x00, 0x00, 0xC0, 0x00, 0x00, 0x00, 
  0x30, 0x00, 0x00, 0x00, 0x00, 0x00, 0x00, 0x00, 0x00, 0x00, 0x00, 0x00, 
  0x03, 0x00, 0x00, 0xC0, 0x00, 0x00, 0x00, 0x30, 0x00, 0x00, 0x00, 0x00, 
  0x00, 0x00, 0x00, 0x00, 0x00, 0x00, 0x00, 0x03, 0x00, 0x00, 0xC0, 0x00, 
  0x00, 0x00, 0x30, 0x00, 0x00, 0x00, 0x00, 0x00, 0x00, 0x00, 0x00, 0x00, 
  0x00, 0x00, 0x03, 0x00, 0x00, 0xC0, 0x00, 0x00, 0x00, 0x30, 0x00, 0x00, 
  0x00, 0x00, 0x00, 0x00, 0x00, 0x00, 0x00, 0x00, 0x00, 0x03, 0x00, 0x00, 
  0xC0, 0x00, 0x00, 0x00, 0x30, 0x00, 0x00, 0x00, 0x00, 0x00, 0x00, 0x00, 
  0x00, 0x00, 0x00, 0x00, 0x03, 0x00, 0x00, 0xC0, 0x00, 0xFF, 0xFF, 0xFF, 
  0xFF, 0xFF, 0xFF, 0xFF, 0x3F, 0x00, 0xFF, 0xFF, 0xFF, 0xFF, 0xFF, 0xFF, 
  0xFF, 0x3F, 0xC0, 0x00, 0xFF, 0xFF, 0xFF, 0xFF, 0xFF, 0xFF, 0xFF, 0x3F, 
  0x00, 0xFF, 0xFF, 0xFF, 0xFF, 0xFF, 0xFF, 0xFF, 0x3F, 0xC0, 0x00, 0x03, 
  0x00, 0x30, 0x00, 0x00, 0x00, 0x00, 0x30, 0x00, 0x03, 0x00, 0x00, 0x00, 
  0x00, 0x03, 0x00, 0x30, 0xC0, 0x00, 0x03, 0x00, 0x30, 0x00, 0x00, 0x00, 
  0x00, 0x30, 0x00, 0x03, 0x00, 0x00, 0x00, 0x00, 0x03, 0x00, 0x30, 0xC0, 
  0x00, 0x03, 0x00, 0x30, 0x00, 0x00, 0x00, 0x00, 0x30, 0x00, 0x03, 0x00, 
  0x00, 0x00, 0x00, 0x03, 0x00, 0x30, 0xC0, 0x00, 0x03, 0x00, 0x30, 0x00, 
  0x00, 0x00, 0x00, 0x30, 0x00, 0x03, 0x00, 0x00, 0x00, 0x00, 0x03, 0x00, 
  0x30, 0xC0, 0x00, 0x03, 0x00, 0x30, 0x00, 0x00, 0x00, 0x00, 0x30, 0x00, 
  0x03, 0x00, 0x00, 0x00, 0x00, 0x03, 0x00, 0x30, 0xC0, 0x00, 0x03, 0x00, 
  0x30, 0x00, 0x00, 0x00, 0x00, 0x30, 0x00, 0x03, 0x00, 0x00, 0x00, 0x00, 
  0x03, 0x00, 0x30, 0xC0, 0x00, 0x03, 0x00, 0x30, 0x00, 0x00, 0x00, 0x00, 
  0x30, 0x00, 0x03, 0x00, 0x00, 0x00, 0x00, 0x03, 0x00, 0x30, 0xC0, 0x00, 
  0x03, 0x00, 0x30, 0x00, 0x00, 0x00, 0x00, 0x30, 0x00, 0x03, 0x00, 0x00, 
  0x00, 0x00, 0x03, 0x00, 0x30, 0xC0, 0x00, 0x03, 0x00, 0x30, 0x00, 0x00, 
  0x00, 0x00, 0x30, 0x00, 0x03, 0x00, 0x00, 0x00, 0x00, 0x03, 0x00, 0x30, 
  0xC0, 0x00, 0x03, 0x00, 0x30, 0x00, 0x00, 0x00, 0x00, 0x30, 0x00, 0x03, 
  0x00, 0x00, 0x00, 0x00, 0x03, 0x00, 0x30, 0xC0, 0x00, 0x03, 0x00, 0x30, 
  0x00, 0x00, 0x00, 0x00, 0x30, 0x00, 0x03, 0x00, 0x00, 0x00, 0x00, 0x03, 
  0x00, 0x30, 0xC0, 0x00, 0x03, 0x00, 0x30, 0x00, 0x00, 0x00, 0x00, 0x30, 
  0x00, 0x03, 0x00, 0x00, 0x00, 0x00, 0x03, 0x00, 0x30, 0xC0, 0x00, 0x03, 
  0x00, 0x30, 0x00, 0x00, 0x00, 0x00, 0x30, 0x00, 0x03, 0x00, 0x00, 0x00, 
  0x00, 0x03, 0x00, 0x30, 0xC0, 0x00, 0x03, 0x00, 0x30, 0x00, 0x00, 0x00, 
  0x00, 0x30, 0x00, 0x03, 0x00, 0x00, 0x00, 0x00, 0x03, 0x00, 0x30, 0xC0, 
  0x00, 0x03, 0x00, 0x30, 0x00, 0x00, 0x00, 0x00, 0x30, 0x00, 0x03, 0x00, 
  0x00, 0x00, 0x00, 0x03, 0x00, 0x30, 0xC0, 0x00, 0x03, 0x00, 0x30, 0x00, 
  0x00, 0x00, 0x00, 0x30, 0x00, 0x03, 0x00, 0x00, 0x00, 0x00, 0x03, 0x00, 
  0x30, 0xC0, 0x00, 0x03, 0x00, 0x30, 0x00, 0x00, 0x00, 0x00, 0x30, 0x00, 
  0x03, 0x00, 0x00, 0x00, 0x00, 0x03, 0x00, 0x30, 0xC0, 0x00, 0x03, 0x00, 
  0x30, 0x00, 0x00, 0x00, 0x00, 0x30, 0x00, 0x03, 0x00, 0x00, 0x00, 0x00, 
  0x03, 0x00, 0x30, 0xC0, 0xFF, 0xFF, 0xFF, 0x3F, 0x00, 0x00, 0xFF, 0xFF, 
  0x3F, 0x00, 0xFF, 0xFF, 0x3F, 0x00, 0x00, 0xFF, 0xFF, 0xFF, 0xFF, 0xFF, 
  0xFF, 0xFF, 0x3F, 0x00, 0x00, 0xFF, 0xFF, 0x3F, 0x00, 0xFF, 0xFF, 0x3F, 
  0x00, 0x00, 0xFF, 0xFF, 0xFF, 0xFF, 0x00, 0x03, 0x00, 0x00, 0x00, 0x00, 
  0x03, 0x00, 0x30, 0x00, 0x03, 0x00, 0x30, 0x00, 0x00, 0x00, 0x00, 0x30, 
  0xC0, 0x00, 0x03, 0x00, 0x00, 0x00, 0x00, 0x03, 0x00, 0x30, 0x00, 0x03, 
  0x00, 0x30, 0x00, 0x00, 0x00, 0x00, 0x30, 0xC0, 0x00, 0x03, 0x00, 0x00, 
  0x00, 0x00, 0x03, 0x00, 0x30, 0x00, 0x03, 0x00, 0x30, 0x00, 0x00, 0x00, 
  0x00, 0x30, 0xC0, 0x00, 0x03, 0x00, 0x00, 0x00, 0x00, 0x03, 0x00, 0x30, 
  0x00, 0x03, 0x00, 0x30, 0x00, 0x00, 0x00, 0x00, 0x30, 0xC0, 0x00, 0x03, 
  0x00, 0x00, 0x00, 0x00, 0x03, 0x00, 0x30, 0x00, 0x03, 0x00, 0x30, 0x00, 
  0x00, 0x00, 0x00, 0x30, 0xC0, 0x00, 0x03, 0x00, 0x00, 0x00, 0x00, 0x03, 
  0x00, 0x30, 0x00, 0x03, 0x00, 0x30, 0x00, 0x00, 0x00, 0x00, 0x30, 0xC0, 
  0x00, 0x03, 0x00, 0x00, 0x00, 0x00, 0x03, 0x00, 0x30, 0x00, 0x03, 0x00, 
  0x30, 0x00, 0x00, 0x00, 0x00, 0x30, 0xC0, 0x00, 0x03, 0x00, 0x00, 0x00, 
  0x00, 0x03, 0x00, 0x30, 0x00, 0x03, 0x00, 0x30, 0x00, 0x00, 0x00, 0x00, 
  0x30, 0xC0, 0x00, 0x03, 0x00, 0x00, 0x00, 0x00, 0x03, 0x00, 0x30, 0x00, 
  0x03, 0x00, 0x30, 0x00, 0x00, 0x00, 0x00, 0x30, 0xC0, 0x00, 0x03, 0x00, 
  0x00, 0x00, 0x00, 0x03, 0x00, 0x30, 0x00, 0x03, 0x00, 0x30, 0x00, 0x00, 
  0x00, 0x00, 0x30, 0xC0, 0x00, 0x03, 0x00, 0x00, 0x00, 0x00, 0x03, 0x00, 
  0x30, 0x00, 0x03, 0x00, 0x30, 0x00, 0x00, 0x00, 0x00, 0x30, 0xC0, 0x00, 
  0x03, 0x00, 0x00, 0x00, 0x00, 0x03, 0x00, 0x30, 0x00, 0x03, 0x00, 0x30, 
  0x00, 0x00, 0x00, 0x00, 0x30, 0xC0, 0x00, 0x03, 0x00, 0x00, 0x00, 0x00, 
  0x03, 0x00, 0x30, 0x00, 0x03, 0x00, 0x30, 0x00, 0x00, 0x00, 0x00, 0x30, 
  0xC0, 0x00, 0x03, 0x00, 0x00, 0x00, 0x00, 0x03, 0x00, 0x30, 0x00, 0x03, 
  0x00, 0x30, 0x00, 0x00, 0x00, 0x00, 0x30, 0xC0, 0x00, 0x03, 0x00, 0x00, 
  0x00, 0x00, 0x03, 0x00, 0x30, 0x00, 0x03, 0x00, 0x30, 0x00, 0x00, 0x00, 
  0x00, 0x30, 0xC0, 0x00, 0x03, 0x00, 0x00, 0x00, 0x00, 0x03, 0x00, 0x30, 
  0x00, 0x03, 0x00, 0x30, 0x00, 0x00, 0x00, 0x00, 0x30, 0xC0, 0x00, 0x03, 
  0x00, 0x00, 0x00, 0x00, 0x03, 0x00, 0x30, 0x00, 0x03, 0x00, 0x30, 0x00, 
  0x00, 0x00, 0x00, 0x30, 0xC0, 0x00, 0x03, 0x00, 0x00, 0x00, 0x00, 0x03, 
  0x00, 0x30, 0x00, 0x03, 0x00, 0x30, 0x00, 0x00, 0x00, 0x00, 0x30, 0xC0, 
  0x00, 0x03, 0x00, 0xF0, 0xFF, 0xFF, 0xFF, 0xFF, 0x3F, 0x00, 0xFF, 0xFF, 
  0xFF, 0xFF, 0xFF, 0x03, 0x00, 0x30, 0xC0, 0x00, 0x03, 0x00, 0xF0, 0xFF, 
  0xFF, 0xFF, 0xFF, 0x3F, 0x00, 0xFF, 0xFF, 0xFF, 0xFF, 0xFF, 0x03, 0x00, 
  0x30, 0xC0, 0x00, 0x03, 0x00, 0x30, 0x00, 0x00, 0x03, 0x00, 0x00, 0x00, 
  0x00, 0x00, 0x30, 0x00, 0x00, 0x03, 0x00, 0x30, 0xC0, 0x00, 0x03, 0x00, 
  0x30, 0x00, 0x00, 0x03, 0x00, 0x00, 0x00, 0x00, 0x00, 0x30, 0x00, 0x00, 
  0x03, 0x00, 0x30, 0xC0, 0x00, 0x03, 0x00, 0x30, 0x00, 0x00, 0x03, 0x00, 
  0x00, 0x00, 0x00, 0x00, 0x30, 0x00, 0x00, 0x03, 0x00, 0x30, 0xC0, 0x00, 
  0x03, 0x00, 0x30, 0x00, 0x00, 0x03, 0x00, 0x00, 0x00, 0x00, 0x00, 0x30, 
  0x00, 0x00, 0x03, 0x00, 0x30, 0xC0, 0x00, 0x03, 0x00, 0x30, 0x00, 0x00, 
  0x03, 0x00, 0x00, 0x00, 0x00, 0x00, 0x30, 0x00, 0x00, 0x03, 0x00, 0x30, 
  0xC0, 0x00, 0x03, 0x00, 0x30, 0x00, 0x00, 0x03, 0x00, 0x00, 0x00, 0x00, 
  0x00, 0x30, 0x00, 0x00, 0x03, 0x00, 0x30, 0xC0, 0x00, 0x03, 0x00, 0x30, 
  0x00, 0x00, 0x03, 0x00, 0x00, 0x00, 0x00, 0x00, 0x30, 0x00, 0x00, 0x03, 
  0x00, 0x30, 0xC0, 0x00, 0x03, 0x00, 0x30, 0x00, 0x00, 0x03, 0x00, 0x00, 
  0x00, 0x00, 0x00, 0x30, 0x00, 0x00, 0x03, 0x00, 0x30, 0xC0, 0x00, 0x03, 
  0x00, 0x30, 0x00, 0x00, 0x03, 0x00, 0x00, 0x00, 0x00, 0x00, 0x30, 0x00, 
  0x00, 0x03, 0x00, 0x30, 0xC0, 0x00, 0x03, 0x00, 0x30, 0x00, 0x00, 0x03, 
  0x00, 0x00, 0x00, 0x00, 0x00, 0x30, 0x00, 0x00, 0x03, 0x00, 0x30, 0xC0, 
  0x00, 0x03, 0x00, 0x30, 0x00, 0x00, 0x03, 0x00, 0x00, 0x00, 0x00, 0x00, 
  0x30, 0x00, 0x00, 0x03, 0x00, 0x30, 0xC0, 0x00, 0x03, 0x00, 0x30, 0x00, 
  0x00, 0x03, 0x00, 0x00, 0x00, 0x00, 0x00, 0x30, 0x00, 0x00, 0x03, 0x00, 
  0x30, 0xC0, 0x00, 0x03, 0x00, 0x30, 0x00, 0x00, 0x03, 0x00, 0x00, 0x00, 
  0x00, 0x00, 0x30, 0x00, 0x00, 0x03, 0x00, 0x30, 0xC0, 0x00, 0x03, 0x00, 
  0x30, 0x00, 0x00, 0x03, 0x00, 0x00, 0x00, 0x00, 0x00, 0x30, 0x00, 0x00, 
  0x03, 0x00, 0x30, 0xC0, 0x00, 0x03, 0x00, 0x30, 0x00, 0x00, 0x03, 0x00, 
  0x00, 0x00, 0x00, 0x00, 0x30, 0x00, 0x00, 0x03, 0x00, 0x30, 0xC0, 0x00, 
  0x03, 0x00, 0x30, 0x00, 0x00, 0x03, 0x00, 0x00, 0x00, 0x00, 0x00, 0x30, 
  0x00, 0x00, 0x03, 0x00, 0x30, 0xC0, 0x00, 0x03, 0x00, 0x30, 0x00, 0x00, 
  0x03, 0x00, 0x00, 0x00, 0x00, 0x00, 0x30, 0x00, 0x00, 0x03, 0x00, 0x30, 
  0xC0, 0x00, 0x03, 0x00, 0x30, 0x00, 0x00, 0x03, 0x00, 0x00, 0x00, 0x00, 
  0x00, 0x30, 0x00, 0x00, 0x03, 0x00, 0x30, 0xC0, 0x00, 0xFF, 0xFF, 0xFF, 
  0xFF, 0xFF, 0x03, 0x00, 0x00, 0x00, 0x00, 0x00, 0xF0, 0xFF, 0xFF, 0xFF, 
  0xFF, 0x3F, 0xC0, 0x00, 0xFF, 0xFF, 0xFF, 0xFF, 0xFF, 0x03, 0x00, 0x00, 
  0x00, 0x00, 0x00, 0xF0, 0xFF, 0xFF, 0xFF, 0xFF, 0x3F, 0xC0, 0x00, 0x00, 
  0x00, 0x00, 0x00, 0x00, 0x00, 0x00, 0x00, 0x00, 0x00, 0x00, 0x00, 0x00, 
  0x00, 0x00, 0x00, 0x00, 0xC0, 0x00, 0x00, 0x00, 0x00, 0x00, 0x00, 0x00, 
  0x00, 0x00, 0x00, 0x00, 0x00, 0x00, 0x00, 0x00, 0x00, 0x00, 0x00, 0xC0, 
  0x00, 0x00, 0x00, 0x00, 0x00, 0x00, 0x00, 0x00, 0x00, 0x00, 0x00, 0x00, 
  0x00, 0x00, 0x00, 0x00, 0x00, 0x00, 0xC0, 0x00, 0x00, 0x00, 0x00, 0x00, 
  0x00, 0x00, 0x00, 0x00, 0x00, 0x00, 0x00, 0x00, 0x00, 0x00, 0x00, 0x00, 
  0x00, 0xC0, 0x00, 0x00, 0x00, 0x00, 0x00, 0x00, 0x00, 0x00, 0x00, 0x00, 
  0x00, 0x00, 0x00, 0x00, 0x00, 0x00, 0x00, 0x00, 0xC0, 0x00, 0x00, 0x00, 
  0x00, 0x00, 0x00, 0x00, 0x00, 0x00, 0x00, 0x00, 0x00, 0x00, 0x00, 0x00, 
  0x00, 0x00, 0x00, 0xC0, 0x00, 0x00, 0x00, 0x00, 0x00, 0x00, 0x00, 0x00, 
  0x00, 0x00, 0x00, 0x00, 0x00, 0x00, 0x00, 0x00, 0x00, 0x00, 0xC0, 0x00, 
  0x00, 0x00, 0x00, 0x00, 0x00, 0x00, 0x00, 0x00, 0x00, 0x00, 0x00, 0x00, 
  0x00, 0x00, 0x00, 0x00, 0x00, 0xC0, 0x00, 0x00, 0x00, 0x00, 0x00, 0x00, 
  0x00, 0x00, 0x00, 0x00, 0x00, 0x00, 0x00, 0x00, 0x00, 0x00, 0x00, 0x00, 
  0xC0, 0x00, 0x00, 0x00, 0x00, 0x00, 0x00, 0x00, 0x00, 0x00, 0x00, 0x00, 
  0x00, 0x00, 0x00, 0x00, 0x00, 0x00, 0x00, 0xC0, 0x00, 0xFF, 0xFF, 0xFF, 
  0xFF, 0xFF, 0x03, 0x00, 0x00, 0x00, 0x00, 0x00, 0xF0, 0xFF, 0xFF, 0xFF, 
  0xFF, 0x3F, 0xC0, 0x00, 0xFF, 0xFF, 0xFF, 0xFF, 0xFF, 0x03, 0x00, 0x00, 
  0x00, 0x00, 0x00, 0xF0, 0xFF, 0xFF, 0xFF, 0xFF, 0x3F, 0xC0, 0x00, 0x03, 
  0x00, 0x30, 0x00, 0x00, 0x03, 0x00, 0x00, 0x00, 0x00, 0x00, 0x30, 0x00, 
  0x00, 0x03, 0x00, 0x30, 0xC0, 0x00, 0x03, 0x00, 0x30, 0x00, 0x00, 0x03, 
  0x00, 0x00, 0x00, 0x00, 0x00, 0x30, 0x00, 0x00, 0x03, 0x00, 0x30, 0xC0, 
  0x00, 0x03, 0x00, 0x30, 0x00, 0x00, 0x03, 0x00, 0x00, 0x00, 0x00, 0x00, 
  0x30, 0x00, 0x00, 0x03, 0x00, 0x30, 0xC0, 0x00, 0x03, 0x00, 0x30, 0x00, 
  0x00, 0x03, 0x00, 0x00, 0x00, 0x00, 0x00, 0x30, 0x00, 0x00, 0x03, 0x00, 
  0x30, 0xC0, 0x00, 0x03, 0x00, 0x30, 0x00, 0x00, 0x03, 0x00, 0x00, 0x00, 
  0x00, 0x00, 0x30, 0x00, 0x00, 0x03, 0x00, 0x30, 0xC0, 0x00, 0x03, 0x00, 
  0x30, 0x00, 0x00, 0x03, 0x00, 0x00, 0x00, 0x00, 0x00, 0x30, 0x00, 0x00, 
  0x03, 0x00, 0x30, 0xC0, 0x00, 0x03, 0x00, 0x30, 0x00, 0x00, 0x03, 0x00, 
  0x00, 0x00, 0x00, 0x00, 0x30, 0x00, 0x00, 0x03, 0x00, 0x30, 0xC0, 0x00, 
  0x03, 0x00, 0x30, 0x00, 0x00, 0x03, 0x00, 0x00, 0x00, 0x00, 0x00, 0x30, 
  0x00, 0x00, 0x03, 0x00, 0x30, 0xC0, 0x00, 0x03, 0x00, 0x30, 0x00, 0x00, 
  0x03, 0x00, 0x00, 0x00, 0x00, 0x00, 0x30, 0x00, 0x00, 0x03, 0x00, 0x30, 
  0xC0, 0x00, 0x03, 0x00, 0x30, 0x00, 0x00, 0x03, 0x00, 0x00, 0x00, 0x00, 
  0x00, 0x30, 0x00, 0x00, 0x03, 0x00, 0x30, 0xC0, 0x00, 0x03, 0x00, 0x30, 
  0x00, 0x00, 0x03, 0x00, 0x00, 0x00, 0x00, 0x00, 0x30, 0x00, 0x00, 0x03, 
  0x00, 0x30, 0xC0, 0x00, 0x03, 0x00, 0x30, 0x00, 0x00, 0x03, 0x00, 0x00, 
  0x00, 0x00, 0x00, 0x30, 0x00, 0x00, 0x03, 0x00, 0x30, 0xC0, 0x00, 0x03, 
  0x00, 0x30, 0x00, 0x00, 0x03, 0x00, 0x00, 0x00, 0x00, 0x00, 0x30, 0x00, 
  0x00, 0x03, 0x00, 0x30, 0xC0, 0x00, 0x03, 0x00, 0x30, 0x00, 0x00, 0x03, 
  0x00, 0x00, 0x00, 0x00, 0x00, 0x30, 0x00, 0x00, 0x03, 0x00, 0x30, 0xC0, 
  0x00, 0x03, 0x00, 0x30, 0x00, 0x00, 0x03, 0x00, 0x00, 0x00, 0x00, 0x00, 
  0x30, 0x00, 0x00, 0x03, 0x00, 0x30, 0xC0, 0x00, 0x03, 0x00, 0x30, 0x00, 
  0x00, 0x03, 0x00, 0x00, 0x00, 0x00, 0x00, 0x30, 0x00, 0x00, 0x03, 0x00, 
  0x30, 0xC0, 0x00, 0x03, 0x00, 0x30, 0x00, 0x00, 0x03, 0x00, 0x00, 0x00, 
  0x00, 0x00, 0x30, 0x00, 0x00, 0x03, 0x00, 0x30, 0xC0, 0x00, 0x03, 0x00, 
  0x30, 0x00, 0x00, 0x03, 0x00, 0x00, 0x00, 0x00, 0x00, 0x30, 0x00, 0x00, 
  0x03, 0x00, 0x30, 0xC0, 0x00, 0x03, 0x00, 0xF0, 0xFF, 0xFF, 0xFF, 0xFF, 
  0x3F, 0x00, 0xFF, 0xFF, 0xFF, 0xFF, 0xFF, 0x03, 0x00, 0x30, 0xC0, 0x00, 
  0x03, 0x00, 0xF0, 0xFF, 0xFF, 0xFF, 0xFF, 0x3F, 0x00, 0xFF, 0xFF, 0xFF, 
  0xFF, 0xFF, 0x03, 0x00, 0x30, 0xC0, 0x00, 0x03, 0x00, 0x00, 0x00, 0x00, 
  0x03, 0x00, 0x30, 0x00, 0x03, 0x00, 0x30, 0x00, 0x00, 0x00, 0x00, 0x30, 
  0xC0, 0x00, 0x03, 0x00, 0x00, 0x00, 0x00, 0x03, 0x00, 0x30, 0x00, 0x03, 
  0x00, 0x30, 0x00, 0x00, 0x00, 0x00, 0x30, 0xC0, 0x00, 0x03, 0x00, 0x00, 
  0x00, 0x00, 0x03, 0x00, 0x30, 0x00, 0x03, 0x00, 0x30, 0x00, 0x00, 0x00, 
  0x00, 0x30, 0xC0, 0x00, 0x03, 0x00, 0x00, 0x00, 0x00, 0x03, 0x00, 0x30, 
  0x00, 0x03, 0x00, 0x30, 0x00, 0x00, 0x00, 0x00, 0x30, 0xC0, 0x00, 0x03, 
  0x00, 0x00, 0x00, 0x00, 0x03, 0x00, 0x30, 0x00, 0x03, 0x00, 0x30, 0x00, 
  0x00, 0x00, 0x00, 0x30, 0xC0, 0x00, 0x03, 0x00, 0x00, 0x00, 0x00, 0x03, 
  0x00, 0x30, 0x00, 0x03, 0x00, 0x30, 0x00, 0x00, 0x00, 0x00, 0x30, 0xC0, 
  0x00, 0x03, 0x00, 0x00, 0x00, 0x00, 0x03, 0x00, 0x30, 0x00, 0x03, 0x00, 
  0x30, 0x00, 0x00, 0x00, 0x00, 0x30, 0xC0, 0x00, 0x03, 0x00, 0x00, 0x00, 
  0x00, 0x03, 0x00, 0x30, 0x00, 0x03, 0x00, 0x30, 0x00, 0x00, 0x00, 0x00, 
  0x30, 0xC0, 0x00, 0x03, 0x00, 0x00, 0x00, 0x00, 0x03, 0x00, 0x30, 0x00, 
  0x03, 0x00, 0x30, 0x00, 0x00, 0x00, 0x00, 0x30, 0xC0, 0x00, 0x03, 0x00, 
  0x00, 0x00, 0x00, 0x03, 0x00, 0x30, 0x00, 0x03, 0x00, 0x30, 0x00, 0x00, 
  0x00, 0x00, 0x30, 0xC0, 0x00, 0x03, 0x00, 0x00, 0x00, 0x00, 0x03, 0x00, 
  0x30, 0x00, 0x03, 0x00, 0x30, 0x00, 0x00, 0x00, 0x00, 0x30, 0xC0, 0x00, 
  0x03, 0x00, 0x00, 0x00, 0x00, 0x03, 0x00, 0x30, 0x00, 0x03, 0x00, 0x30, 
  0x00, 0x00, 0x00, 0x00, 0x30, 0xC0, 0x00, 0x03, 0x00, 0x00, 0x00, 0x00, 
  0x03, 0x00, 0x30, 0x00, 0x03, 0x00, 0x30, 0x00, 0x00, 0x00, 0x00, 0x30, 
  0xC0, 0x00, 0x03, 0x00, 0x00, 0x00, 0x00, 0x03, 0x00, 0x30, 0x00, 0x03, 
  0x00, 0x30, 0x00, 0x00, 0x00, 0x00, 0x30, 0xC0, 0x00, 0x03, 0x00, 0x00, 
  0x00, 0x00, 0x03, 0x00, 0x30, 0x00, 0x03, 0x00, 0x30, 0x00, 0x00, 0x00, 
  0x00, 0x30, 0xC0, 0x00, 0x03, 0x00, 0x00, 0x00, 0x00, 0x03, 0x00, 0x30, 
  0x00, 0x03, 0x00, 0x30, 0x00, 0x00, 0x00, 0x00, 0x30, 0xC0, 0x00, 0x03, 
  0x00, 0x00, 0x00, 0x00, 0x03, 0x00, 0x30, 0x00, 0x03, 0x00, 0x30, 0x00, 
  0x00, 0x00, 0x00, 0x30, 0xC0, 0x00, 0x03, 0x00, 0x00, 0x00, 0x00, 0x03, 
  0x00, 0x30, 0x00, 0x03, 0x00, 0x30, 0x00, 0x00, 0x00, 0x00, 0x30, 0xC0, 
  0xFF, 0xFF, 0xFF, 0x3F, 0x00, 0x00, 0xFF, 0xFF, 0x3F, 0x00, 0xFF, 0xFF, 
  0x3F, 0x00, 0x00, 0xFF, 0xFF, 0xFF, 0xFF, 0xFF, 0xFF, 0xFF, 0x3F, 0x00, 
  0x00, 0xFF, 0xFF, 0x3F, 0x00, 0xFF, 0xFF, 0x3F, 0x00, 0x00, 0xFF, 0xFF, 
  0xFF, 0xFF, 0x00, 0x03, 0x00, 0x30, 0x00, 0x00, 0x00, 0x00, 0x30, 0x00, 
  0x03, 0x00, 0x00, 0x00, 0x00, 0x03, 0x00, 0x30, 0xC0, 0x00, 0x03, 0x00, 
  0x30, 0x00, 0x00, 0x00, 0x00, 0x30, 0x00, 0x03, 0x00, 0x00, 0x00, 0x00, 
  0x03, 0x00, 0x30, 0xC0, 0x00, 0x03, 0x00, 0x30, 0x00, 0x00, 0x00, 0x00, 
  0x30, 0x00, 0x03, 0x00, 0x00, 0x00, 0x00, 0x03, 0x00, 0x30, 0xC0, 0x00, 
  0x03, 0x00, 0x30, 0x00, 0x00, 0x00, 0x00, 0x30, 0x00, 0x03, 0x00, 0x00, 
  0x00, 0x00, 0x03, 0x00, 0x30, 0xC0, 0x00, 0x03, 0x00, 0x30, 0x00, 0x00, 
  0x00, 0x00, 0x30, 0x00, 0x03, 0x00, 0x00, 0x00, 0x00, 0x03, 0x00, 0x30, 
  0xC0, 0x00, 0x03, 0x00, 0x30, 0x00, 0x00, 0x00, 0x00, 0x30, 0x00, 0x03, 
  0x00, 0x00, 0x00, 0x00, 0x03, 0x00, 0x30, 0xC0, 0x00, 0x03, 0x00, 0x30, 
  0x00, 0x00, 0x00, 0x00, 0x30, 0x00, 0x03, 0x00, 0x00, 0x00, 0x00, 0x03, 
  0x00, 0x30, 0xC0, 0x00, 0x03, 0x00, 0x30, 0x00, 0x00, 0x00, 0x00, 0x30, 
  0x00, 0x03, 0x00, 0x00, 0x00, 0x00, 0x03, 0x00, 0x30, 0xC0, 0x00, 0x03, 
  0x00, 0x30, 0x00, 0x00, 0x00, 0x00, 0x30, 0x00, 0x03, 0x00, 0x00, 0x00, 
  0x00, 0x03, 0x00, 0x30, 0xC0, 0x00, 0x03, 0x00, 0x30, 0x00, 0x00, 0x00, 
  0x00, 0x30, 0x00, 0x03, 0x00, 0x00, 0x00, 0x00, 0x03, 0x00, 0x30, 0xC0, 
  0x00, 0x03, 0x00, 0x30, 0x00, 0x00, 0x00, 0x00, 0x30, 0x00, 0x03, 0x00, 
  0x00, 0x00, 0x00, 0x03, 0x00, 0x30, 0xC0, 0x00, 0x03, 0x00, 0x30, 0x00, 
  0x00, 0x00, 0x00, 0x30, 0x00, 0x03, 0x00, 0x00, 0x00, 0x00, 0x03, 0x00, 
  0x30, 0xC0, 0x00, 0x03, 0x00, 0x30, 0x00, 0x00, 0x00, 0x00, 0x30, 0x00, 
  0x03, 0x00, 0x00, 0x00, 0x00, 0x03, 0x00, 0x30, 0xC0, 0x00, 0x03, 0x00, 
  0x30, 0x00, 0x00, 0x00, 0x00, 0x30, 0x00, 0x03, 0x00, 0x00, 0x00, 0x00, 
  0x03, 0x00, 0x30, 0xC0, 0x00, 0x03, 0x00, 0x30, 0x00, 0x00, 0x00, 0x00, 
  0x30, 0x00, 0x03, 0x00, 0x00, 0x00, 0x00, 0x03, 0x00, 0x30, 0xC0, 0x00, 
  0x03, 0x00, 0x30, 0x00, 0x00, 0x00, 0x00, 0x30, 0x00, 0x03, 0x00, 0x00, 
  0x00, 0x00, 0x03, 0x00, 0x30, 0xC0, 0x00, 0x03, 0x00, 0x30, 0x00, 0x00, 
  0x00, 0x00, 0x30, 0x00, 0x03, 0x00, 0x00, 0x00, 0x00, 0x03, 0x00, 0x30, 
  0xC0, 0x00, 0x03, 0x00, 0x30, 0x00, 0x00, 0x00, 0x00, 0x30, 0x00, 0x03, 
  0x00, 0x00, 0x00, 0x00, 0x03, 0x00, 0x30, 0xC0, 0x00, 0xFF, 0xFF, 0xFF, 
  0xFF, 0xFF, 0xFF, 0xFF, 0x3F, 0x00, 0xFF, 0xFF, 0xFF, 0xFF, 0xFF, 0xFF, 
  0xFF, 0x3F, 0xC0, 0x00, 0xFF, 0xFF, 0xFF, 0xFF, 0xFF, 0xFF, 0xFF, 0x3F, 
  0x00, 0xFF, 0xFF, 0xFF, 0xFF, 0xFF, 0xFF, 0xFF, 0x3F, 0xC0, 0x00, 0x00, 
  0x00, 0x30, 0x00, 0x00, 0x00, 0x00, 0x00, 0x00, 0x00, 0x00, 0x00, 0x00, 
  0x00, 0x03, 0x00, 0x00, 0xC0, 0x00, 0x00, 0x00, 0x30, 0x00, 0x00, 0x00, 
  0x00, 0x00, 0x00, 0x00, 0x00, 0x00, 0x00, 0x00, 0x03, 0x00, 0x00, 0xC0, 
  0x00, 0x00, 0x00, 0x30, 0x00, 0x00, 0x00, 0x00, 0x00, 0x00, 0x00, 0x00, 
  0x00, 0x00, 0x00, 0x03, 0x00, 0x00, 0xC0, 0x00, 0x00, 0x00, 0x30, 0x00, 
  0x00, 0x00, 0x00, 0x00, 0x00, 0x00, 0x00, 0x00, 0x00, 0x00, 0x03, 0x00, 
  0x00, 0xC0, 0x00, 0x00, 0x00, 0x30, 0x00, 0x00, 0x00, 0x00, 0x00, 0x00, 
  0x00, 0x00, 0x00, 0x00, 0x00, 0x03, 0x00, 0x00, 0xC0, 0x00, 0x00, 0x00, 
  0x30, 0x00, 0x00, 0x00, 0x00, 0x00, 0x00, 0x00, 0x00, 0x00, 0x00, 0x00, 
  0x03, 0x00, 0x00, 0xC0, 0x00, 0x00, 0x00, 0x30, 0x00, 0x00, 0x00, 0x00, 
  0x00, 0x00, 0x00, 0x00, 0x00, 0x00, 0x00, 0x03, 0x00, 0x00, 0xC0, 0x00, 
  0x00, 0x00, 0x30, 0x00, 0x00, 0x00, 0x00, 0x00, 0x00, 0x00, 0x00, 0x00, 
  0x00, 0x00, 0x03, 0x00, 0x00, 0xC0, 0xFF, 0xFF, 0xFF, 0xFF, 0xFF, 0xFF, 
  0xFF, 0xFF, 0xFF, 0xFF, 0xFF, 0xFF, 0xFF, 0xFF, 0xFF, 0xFF, 0xFF, 0xFF, 
  0xFF, 0xFF, 0xFF, 0xFF, 0xFF, 0xFF, 0xFF, 0xFF, 0xFF, 0xFF, 0xFF, 0xFF, 
  0xFF, 0xFF, 0xFF, 0xFF, 0xFF, 0xFF, 0xFF, 0xFF, };
