#define tic-tac-toe.svg_width 64
#define tic-tac-toe.svg_height 64
static char tic-tac-toe.svg_bits[] = {
  0xE0, 0x07, 0x00, 0x00, 0x00, 0x00, 0x00, 0x00, 0xF8, 0x1F, 0x00, 0x00, 
  0x06, 0x60, 0x00, 0x00, 0x3C, 0x3C, 0x00, 0x00, 0x0E, 0x70, 0x00, 0x00, 
  0x1E, 0x70, 0x00, 0x00, 0x1C, 0x38, 0x00, 0x00, 0x06, 0x60, 0x00, 0x00, 
  0x38, 0x1C, 0x00, 0x00, 0x07, 0xE0, 0x00, 0x00, 0x70, 0x0E, 0x00, 0x00, 
  0x03, 0xC0, 0x00, 0x00, 0xE0, 0x07, 0x00, 0x00, 0x03, 0xC0, 0x00, 0x00, 
  0xC0, 0x03, 0x00, 0x00, 0x03, 0xC0, 0x00, 0x00, 0xC0, 0x03, 0x00, 0x00, 
  0x03, 0xC0, 0x00, 0x00, 0xE0, 0x07, 0x00, 0x00, 0x07, 0xE0, 0x00, 0x00, 
  0x70, 0x0E, 0x00, 0x00, 0x06, 0x60, 0x00, 0x00, 0x38, 0x1C, 0x00, 0x00, 
  0x0E, 0x70, 0x00, 0x00, 0x1C, 0x38, 0x00, 0x00, 0x3C, 0x3C, 0x00, 0x00, 
  0x0E, 0x70, 0x00, 0x00, 0xF8, 0x1F, 0x00, 0x00, 0x06, 0x60, 0x00, 0x00, 
  0xE0, 0x07, 0x00, 0x00, 0x00, 0x00, 0x00, 0x00, 0x00, 0x00, 0x00, 0x00, 
  0x00, 0x00, 0x00, 0x00, 0x00, 0x00, 0x00, 0x00, 0x00, 0x00, 0x00, 0x00, 
  0x00, 0x00, 0x00, 0x00, 0x00, 0x00, 0x00, 0x00, 0x00, 0x00, 0x00, 0x00, 
  0x00, 0x00, 0x00, 0x00, 0x00, 0x00, 0x00, 0x00, 0x00, 0x00, 0x00, 0x00, 
  0x00, 0x00, 0x00, 0x00, 0x00, 0x00, 0x00, 0x00, 0x00, 0x00, 0x00, 0x00, 
  0x00, 0x00, 0x00, 0x00, 0x00, 0x00, 0x00, 0x00, 0x00, 0x00, 0x00, 0x00, 
  0x00, 0x00, 0x00, 0x00, 0x00, 0x00, 0x00, 0x00, 0x00, 0x00, 0x00, 0x00, 
  0x00, 0x00, 0x00, 0x00, 0x00, 0x00, 0x00, 0x00, 0x00, 0x00, 0x00, 0x00, 
  0x00, 0x00, 0x00, 0x00, 0x00, 0x00, 0x00, 0x00, 0x00, 0x00, 0x00, 0x00, 
  0x00, 0x00, 0x00, 0x00, 0x00, 0x00, 0x00, 0x00, 0x00, 0x00, 0x00, 0x00, 
  0x00, 0x00, 0x00, 0x00, 0x00, 0x00, 0x00, 0x00, 0x00, 0x00, 0x00, 0x00, 
  0x00, 0x00, 0x00, 0x00, 0x00, 0x00, 0x00, 0x00, 0xE0, 0x07, 0x00, 0x00, 
  0x06, 0x60, 0x00, 0x00, 0xF8, 0x1F, 0x00, 0x00, 0x0E, 0x70, 0x00, 0x00, 
  0x3C, 0x3C, 0x00, 0x00, 0x1C, 0x38, 0x00, 0x00, 0x0E, 0x70, 0x00, 0x00, 
  0x38, 0x1C, 0x00, 0x00, 0x0E, 0x60, 0x00, 0x00, 0x70, 0x0E, 0x00, 0x00, 
  0x07, 0xE0, 0x00, 0x00, 0xE0, 0x07, 0x00, 0x00, 0x03, 0xC0, 0x00, 0x00, 
  0xC0, 0x03, 0x00, 0x00, 0x03, 0xC0, 0x00, 0x00, 0xC0, 0x03, 0x00, 0x00, 
  0x03, 0xC0, 0x00, 0x00, 0xE0, 0x07, 0x00, 0x00, 0x03, 0xC0, 0x00, 0x00, 
  0x70, 0x0E, 0x00, 0x00, 0x07, 0xE0, 0x00, 0x00, 0x38, 0x1C, 0x00, 0x00, 
  0x06, 0x60, 0x00, 0x00, 0x1C, 0x38, 0x00, 0x00, 0x0E, 0x70, 0x00, 0x00, 
  0x0E, 0x70, 0x00, 0x00, 0x3C, 0x3C, 0x00, 0x00, 0x06, 0x60, 0x00, 0x00, 
  0xF8, 0x1F, 0x00, 0x00, 0x00, 0x00, 0x00, 0x00, 0xE0, 0x07, 0x00, 0x00, 
  0x00, 0x00, 0x00, 0x00, 0x00, 0x00, 0x00, 0x00, 0x00, 0x00, 0x00, 0x00, 
  0x00, 0x00, 0x00, 0x00, 0x00, 0x00, 0x00, 0x00, 0x00, 0x00, 0x00, 0x00, 
  0x00, 0x00, 0x00, 0x00, 0x00, 0x00, 0x00, 0x00, 0x00, 0x00, 0x00, 0x00, 
  0x00, 0x00, 0x00, 0x00, 0x00, 0x00, 0x00, 0x00, 0x00, 0x00, 0x00, 0x00, 
  0x00, 0x00, 0x00, 0x00, 0x00, 0x00, 0x00, 0x00, 0x00, 0x00, 0x00, 0x00, 
  0x00, 0x00, 0x00, 0x00, 0x00, 0x00, 0x00, 0x00, 0x00, 0x00, 0x00, 0x00, 
  0x00, 0x00, 0x00, 0x00, 0x00, 0x00, 0x00, 0x00, 0x00, 0x00, 0x00, 0x00, 
  0x00, 0x00, 0x00, 0x00, 0x00, 0x00, 0x00, 0x00, 0x00, 0x00, 0x00, 0x00, 
  0x00, 0x00, 0x00, 0x00, 0x00, 0x00, 0x00, 0x00, 0x00, 0x00, 0x00, 0x00, 
  0x00, 0x00, 0x00, 0x00, 0x00, 0x00, 0x00, 0x00, 0x00, 0x00, 0x00, 0x00, 
  0x00, 0x00, 0x00, 0x00, 0x00, 0x00, 0x00, 0x00, };
