#define zig-zag.svg_width 40
#define zig-zag.svg_height 12
static char zig-zag.svg_bits[] = {
  0xC0, 0x07, 0x3C, 0xE0, 0x03, 0xE0, 0x03, 0x7E, 0xC0, 0x07, 0xF0, 0x01, 
  0xFF, 0x80, 0x0F, 0xF8, 0x80, 0xFF, 0x01, 0x1F, 0x7C, 0xC0, 0xE7, 0x03, 
  0x3E, 0x3E, 0xE0, 0xC3, 0x07, 0x7C, 0x1F, 0xF0, 0x81, 0x0F, 0xF8, 0x0F, 
  0xF8, 0x00, 0x1F, 0xF0, 0x07, 0x7C, 0x00, 0x3E, 0xE0, 0x03, 0x3E, 0x00, 
  0x7C, 0xC0, 0x01, 0x1F, 0x00, 0xF8, 0x80, 0x80, 0x0F, 0x18, 0xF0, 0x01, 
  };
